<svg width="46" height="46" viewBox="0 0 46 46" fill="none" xmlns="http://www.w3.org/2000/svg">
<circle cx="23" cy="23" r="22.5" stroke="#7F859C"/>
<path d="M39.1064 26.5518H38.6064V27.0006L39.0526 27.0489L39.1064 26.5518ZM37.2697 30.8814V30.3814H36.8976L36.7908 30.7378L37.2697 30.8814ZM30.2155 30.8814L30.6955 30.7412L30.5904 30.3814H30.2155V30.8814ZM18.2034 30.8814V30.3814H17.8314L17.7245 30.7378L18.2034 30.8814ZM11.1493 30.8814L11.6292 30.7412L11.5241 30.3814H11.1493V30.8814ZM24.8117 15.3195H24.3117V15.8195H24.8117V15.3195ZM32.1255 16.2852L31.7293 16.5903L31.765 16.6366L31.8104 16.6734L32.1255 16.2852ZM32.2386 16.4278L32.6517 16.1461L32.6105 16.0857L32.5537 16.0396L32.2386 16.4278ZM35.0669 20.5759L34.6538 20.8576L34.7763 21.0372L34.9912 21.0701L35.0669 20.5759ZM36.7173 20.8287L36.6416 21.3229L36.6793 21.3287H36.7173V20.8287ZM27.3263 20.7121V21.2121H27.8263V20.7121H27.3263ZM30.3808 17.1603L29.9496 17.4133L29.9589 17.4292L29.9694 17.4444L30.3808 17.1603ZM32.6502 20.4463L33.0667 20.1696L33.0616 20.1622L32.6502 20.4463ZM27.3263 20.7056V20.2056H26.8263V20.7056H27.3263ZM39.6064 26.5518V23.1555H38.6064V26.5518H39.6064ZM40.8176 27.8805C40.8176 26.9231 40.0577 26.1518 39.1602 26.0547L39.0526 27.0489C39.4728 27.0943 39.8176 27.4638 39.8176 27.8805H40.8176ZM40.8176 29.5592V27.8805H39.8176V29.5592H40.8176ZM38.96 31.3814C40.0053 31.3814 40.8176 30.5511 40.8176 29.5592H39.8176C39.8176 29.9931 39.4587 30.3814 38.96 30.3814V31.3814ZM37.2697 31.3814H38.96V30.3814H37.2697V31.3814ZM33.7426 33.9545C35.6556 33.9545 37.2465 32.6996 37.7486 31.025L36.7908 30.7378C36.4144 31.9928 35.2103 32.9545 33.7426 32.9545V33.9545ZM29.7356 31.0216C30.2386 32.7436 31.8355 33.9545 33.7426 33.9545V32.9545C32.269 32.9545 31.0709 32.0265 30.6955 30.7412L29.7356 31.0216ZM22.6489 31.3814H30.2155V30.3814H22.6489V31.3814ZM18.2034 31.3814H22.6489V30.3814H18.2034V31.3814ZM14.6764 33.9545C16.5894 33.9545 18.1803 32.6996 18.6824 31.025L17.7245 30.7378C17.3482 31.9928 16.144 32.9545 14.6764 32.9545V33.9545ZM10.6693 31.0216C11.1723 32.7436 12.7693 33.9545 14.6764 33.9545V32.9545C13.2028 32.9545 12.0047 32.0265 11.6292 30.7412L10.6693 31.0216ZM9.19939 31.3814H11.1493V30.3814H9.19939V31.3814ZM7.3418 29.5592C7.3418 30.6089 8.2135 31.3814 9.19939 31.3814V30.3814C8.72121 30.3814 8.3418 30.0131 8.3418 29.5592H7.3418ZM7.3418 28.1981V29.5592H8.3418V28.1981H7.3418ZM7.3418 27.8805V28.1981H8.3418V27.8805H7.3418ZM7.3418 22.9546V27.8805H8.3418V22.9546H7.3418ZM7.3418 13.8741V22.9546H8.3418V13.8741H7.3418ZM9.09291 12.0454C8.09613 12.0454 7.3418 12.895 7.3418 13.8741H8.3418C8.3418 13.3884 8.70548 13.0454 9.09291 13.0454V12.0454ZM23.5606 12.0454H9.09291V13.0454H23.5606V12.0454ZM25.3117 13.8741C25.3117 12.895 24.5574 12.0454 23.5606 12.0454V13.0454C23.9481 13.0454 24.3117 13.3884 24.3117 13.8741H25.3117ZM25.3117 15.3195V13.8741H24.3117V15.3195H25.3117ZM30.1756 14.8195H24.8117V15.8195H30.1756V14.8195ZM32.5216 15.9801C31.9958 15.2973 31.1553 14.8195 30.1756 14.8195V15.8195C30.8196 15.8195 31.3767 16.1324 31.7293 16.5903L32.5216 15.9801ZM32.5985 16.0798C32.5954 16.0751 32.5328 15.9718 32.4405 15.897L31.8104 16.6734C31.7912 16.6579 31.7778 16.644 31.7701 16.6356C31.7623 16.627 31.7574 16.6206 31.7558 16.6185C31.7541 16.6162 31.7539 16.6159 31.7559 16.6188C31.7581 16.622 31.7606 16.6257 31.7656 16.6332L32.5985 16.0798ZM32.5537 16.0396C32.5729 16.0551 32.5862 16.069 32.5939 16.0774C32.6017 16.086 32.6066 16.0923 32.6083 16.0945C32.6099 16.0967 32.6101 16.0971 32.6081 16.0942C32.606 16.091 32.6034 16.0872 32.5985 16.0798L31.7656 16.6332C31.7687 16.6379 31.8313 16.7411 31.9235 16.816L32.5537 16.0396ZM35.48 20.2942L32.6517 16.1461L31.8255 16.7095L34.6538 20.8576L35.48 20.2942ZM36.793 20.3344L35.1426 20.0817L34.9912 21.0701L36.6416 21.3229L36.793 20.3344ZM39.6064 23.1555C39.6064 21.5772 38.3053 20.3287 36.7173 20.3287V21.3287C37.778 21.3287 38.6064 22.1542 38.6064 23.1555H39.6064ZM14.6752 31.1657C13.9145 31.1657 13.3385 30.561 13.3385 29.8768H12.3385C12.3385 31.124 13.373 32.1657 14.6752 32.1657V31.1657ZM16.012 29.8768C16.012 30.561 15.436 31.1657 14.6752 31.1657V32.1657C15.9775 32.1657 17.012 31.124 17.012 29.8768H16.012ZM14.6752 28.5879C15.436 28.5879 16.012 29.1926 16.012 29.8768H17.012C17.012 28.6296 15.9775 27.5879 14.6752 27.5879V28.5879ZM13.3385 29.8768C13.3385 29.1996 13.9473 28.5879 14.6752 28.5879V27.5879C13.42 27.5879 12.3385 28.6226 12.3385 29.8768H13.3385ZM26.6532 20.5436C26.6532 20.9416 26.9823 21.2121 27.3263 21.2121V20.2121C27.4839 20.2121 27.6532 20.34 27.6532 20.5436H26.6532ZM26.6532 17.2575V20.5436H27.6532V17.2575H26.6532ZM27.3263 16.589C26.9502 16.589 26.6532 16.8907 26.6532 17.2575H27.6532C27.6532 17.4428 27.5027 17.589 27.3263 17.589V16.589ZM30.2411 16.589H27.3263V17.589H30.2411V16.589ZM30.8121 16.9072C30.6759 16.6751 30.4354 16.589 30.2411 16.589V17.589C30.1666 17.589 30.0325 17.5546 29.9496 17.4133L30.8121 16.9072ZM33.0616 20.1622L30.7923 16.8761L29.9694 17.4444L32.2387 20.7305L33.0616 20.1622ZM32.5104 21.2056C33.0407 21.2056 33.3616 20.6136 33.0666 20.1696L32.2337 20.723C32.0851 20.4994 32.2463 20.2056 32.5104 20.2056V21.2056ZM27.3263 21.2056H32.5104V20.2056H27.3263V21.2056ZM27.8263 20.7121V20.7056H26.8263V20.7121H27.8263ZM33.7425 31.1657C32.9818 31.1657 32.4058 30.561 32.4058 29.8768H31.4058C31.4058 31.124 32.4403 32.1657 33.7425 32.1657V31.1657ZM35.0793 29.8768C35.0793 30.554 34.4705 31.1657 33.7425 31.1657V32.1657C34.9977 32.1657 36.0793 31.131 36.0793 29.8768H35.0793ZM33.7425 28.5879C34.5033 28.5879 35.0793 29.1926 35.0793 29.8768H36.0793C36.0793 28.6296 35.0448 27.5879 33.7425 27.5879V28.5879ZM32.4058 29.8768C32.4058 29.1996 33.0145 28.5879 33.7425 28.5879V27.5879C32.4873 27.5879 31.4058 28.6226 31.4058 29.8768H32.4058Z" fill="#7F859C"/>
</svg>
