<svg width="105" height="23" viewBox="0 0 105 23" fill="none" xmlns="http://www.w3.org/2000/svg">
<path fill-rule="evenodd" clip-rule="evenodd" d="M34.4712 9.56433C34.93 9.56433 35.3802 9.44468 35.7698 9.20536C36.5402 8.74382 36.9644 7.9404 36.9644 7.05152C36.9644 6.13699 36.5143 5.29938 35.7005 4.84639C35.3283 4.63271 34.9041 4.5216 34.4712 4.5216C34.0297 4.5216 33.6055 4.63271 33.2246 4.85494C32.4282 5.31647 31.9867 6.14553 31.9867 7.05152C31.9867 7.93186 32.4022 8.73528 33.164 9.19681C33.5536 9.44468 34.0037 9.56433 34.4712 9.56433ZM23.2345 6.0857V2.03443H25.442C26.0047 2.03443 26.4895 2.23955 26.8877 2.63272V2.64126C27.3032 3.02588 27.4937 3.49596 27.4937 4.05152C27.4937 4.61562 27.2859 5.08571 26.8877 5.48741C26.4895 5.88058 26.0047 6.0857 25.442 6.0857H25.0438H23.2345ZM23.2345 8.11134H25.0438H25.442C25.9874 8.11134 26.5241 8.00023 27.0349 7.78656C27.5197 7.57288 27.9612 7.29083 28.3421 6.91476C28.7143 6.54724 29.0087 6.11135 29.2164 5.63271C29.4415 5.12844 29.5454 4.59853 29.5454 4.05152C29.5454 3.51306 29.4415 2.98314 29.2164 2.48742C29.0087 2.00879 28.7143 1.57289 28.3421 1.20537C27.9612 0.837846 27.5197 0.547248 27.0349 0.333573C26.5241 0.119898 25.9874 0.017334 25.442 0.017334H21.1914V11.231H23.2345V8.11134ZM37.0943 10.2737C36.3844 11.0173 35.3715 11.419 34.3154 11.419C31.8481 11.419 30.0475 9.45322 30.0475 7.05152C30.0475 4.65836 31.8395 2.6669 34.3154 2.6669C35.3715 2.6669 36.3844 3.07716 37.0943 3.8293V2.76092H39.0248V11.3165H37.0943V10.2737ZM47.2403 10.137C46.6256 10.872 45.6647 11.2225 44.6951 11.2225C42.1673 11.2225 40.9034 9.49596 40.9034 7.11989V2.76947H42.8512V7.01733C42.8512 8.43613 43.4312 9.36775 44.9462 9.36775C46.5737 9.36775 47.2576 8.20536 47.2576 6.70109V2.76947H49.1794V10.1284C49.1794 12.6925 47.5692 14.4618 44.9288 14.4618C43.5524 14.4618 42.2452 14.0259 41.189 13.1541L41.0765 13.0686L42.2019 11.8806L42.2971 11.9319C43.1282 12.4276 43.9419 12.6925 44.9288 12.6925C46.3746 12.6925 47.2403 11.9233 47.2403 10.4789V10.137Z" fill="#CC1626"/>
<path fill-rule="evenodd" clip-rule="evenodd" d="M80.2672 5.07692L80.3278 4.95726C80.3364 4.94871 80.3364 4.93162 80.3451 4.92307V4.91452L80.4057 4.80341H80.4144L80.4317 4.76922L80.449 4.75213L80.4663 4.7094H80.475C80.4923 4.67521 80.5096 4.64957 80.5269 4.62393L80.5356 4.60683C80.5442 4.59828 80.5529 4.58119 80.5615 4.5641L80.5702 4.55555L80.6048 4.51281V4.50427C80.6394 4.45299 80.6741 4.41025 80.7087 4.36752V4.35897C80.726 4.34188 80.7347 4.33333 80.7433 4.31623H80.752C81.5657 3.26495 82.821 2.64957 84.1628 2.64957H84.3446C86.7686 2.70085 88.5173 4.64957 88.5173 7.01709C88.5173 9.41879 86.7253 11.4017 84.2494 11.4017C83.2971 11.4017 82.3622 11 81.7389 10.2906V14.3248H79.8084V6.82905H79.817C79.8343 6.29914 79.9555 5.77777 80.172 5.28204L80.1806 5.26495L80.1893 5.23076L80.2066 5.20512L80.2239 5.16239L80.2412 5.11965L80.2672 5.07692ZM51.1191 0H53.1708V11.2137H51.1191V0ZM55.967 5.62392L60.7024 11.2478H58.0014L53.4392 5.62392L58.0014 0H60.7024L55.967 5.62392ZM62.4425 7.58119C62.5117 8.92307 63.6025 9.61537 64.9184 9.61537C65.836 9.61537 66.7536 9.36751 67.5501 8.90597L67.6367 8.85469L68.7188 9.99144L68.5976 10.0855C67.5328 10.8889 66.2775 11.3846 64.9184 11.3846C62.3213 11.3846 60.4427 9.58973 60.4427 7.01709C60.4427 4.50427 62.2434 2.63248 64.8145 2.63248C66.5632 2.63248 67.9656 3.46153 68.6582 5.04273C68.9525 5.72649 69.0391 6.77777 68.814 7.48717L68.7794 7.58119H62.4425ZM71.9911 7.58119C72.0604 8.92307 73.1512 9.61537 74.467 9.61537C75.3933 9.61537 76.311 9.36751 77.0987 8.90597L77.194 8.85469L78.2674 9.99144L78.1549 10.0855C77.0814 10.8889 75.8262 11.3846 74.467 11.3846C71.8699 11.3846 70 9.58973 70 7.01709C70 4.50427 71.792 2.63248 74.3718 2.63248C76.1118 2.63248 77.5143 3.46153 78.2068 5.04273C78.5098 5.72649 78.5877 6.77777 78.3627 7.48717L78.3367 7.58119H71.9911ZM91.6598 7.58119C91.729 8.92307 92.8198 9.61537 94.1357 9.61537C95.0533 9.61537 95.9796 9.36751 96.7674 8.90597L96.8626 8.84614L97.9361 9.99144L97.8149 10.0855C96.7501 10.8889 95.4948 11.3846 94.1357 11.3846C91.5386 11.3846 89.6687 9.58973 89.6687 7.01709C89.6687 4.50427 91.4607 2.63248 94.0404 2.63248C95.7805 2.63248 97.1829 3.46153 97.8755 5.04273C98.1785 5.72649 98.2564 6.77777 98.0313 7.48717L98.0053 7.58119H91.6598ZM81.7216 7.01709C81.7216 10.4957 86.5781 10.2051 86.5781 7.01709C86.5781 3.82906 81.7216 3.53846 81.7216 7.01709ZM62.555 6.05982H67.0047C66.9787 5.91452 66.9181 5.76922 66.8575 5.63247C66.4766 4.8376 65.7235 4.4017 64.8318 4.4017C63.8622 4.4017 62.9446 4.92307 62.6156 5.86324C62.5896 5.92307 62.5723 5.99145 62.555 6.05982ZM72.1037 6.05982H76.562C76.5274 5.91452 76.4754 5.76922 76.4062 5.63247C76.0253 4.8376 75.2721 4.4017 74.3891 4.4017C73.4109 4.4017 72.4932 4.92307 72.1643 5.86324C72.1469 5.92307 72.121 5.99145 72.1037 6.05982ZM91.7723 6.05982H96.2307C96.196 5.91452 96.1441 5.76922 96.0748 5.63247C95.6939 4.8376 94.9408 4.4017 94.0578 4.4017C93.0795 4.4017 92.1619 4.92307 91.8329 5.85469C91.8069 5.92307 91.7896 5.99145 91.7723 6.05982ZM101.52 3.88034C102.291 3.03418 103.373 2.65812 104.541 2.65812H104.992L105 4.5641H104.16C102.308 4.5641 101.537 5.81196 101.537 7.52136V11.282H99.5376V2.75213H101.52V3.88034Z" fill="#FFCC00"/>
<path fill-rule="evenodd" clip-rule="evenodd" d="M23.9616 18.4273H21.7455V21.829H21.1914V17.9145H24.5243V21.829H23.9616V18.4273ZM28.4719 18.4273H26.8098C26.8098 19.2051 26.8011 20.2222 26.602 20.9743C26.5068 21.3248 26.3423 21.7008 25.9701 21.829C25.8315 21.8803 25.693 21.8889 25.5545 21.8889C25.4247 21.8889 25.2342 21.8632 25.113 21.829L25.0264 21.8034L25.1303 21.282L25.2342 21.3077C25.2948 21.3248 25.4247 21.359 25.4939 21.359C25.5545 21.359 25.6238 21.3504 25.6844 21.3333C25.9441 21.2649 26.0393 20.9402 26.0913 20.7179C26.2731 19.9829 26.2731 18.9658 26.2731 18.2051V17.9145H29.0346V21.829H28.4719V18.4273ZM32.8004 19.4615V19.4273C32.8004 18.7094 32.3589 18.3846 31.6577 18.3846C31.2422 18.3846 30.8786 18.4872 30.515 18.6667L30.4197 18.7179L30.212 18.2222L30.2985 18.1795C30.7487 17.9744 31.1729 17.8547 31.675 17.8547C32.1338 17.8547 32.61 17.9573 32.9389 18.2906C33.2419 18.5897 33.3545 18.9914 33.3545 19.4102V21.829H32.8004V21.3761C32.4541 21.735 31.978 21.9145 31.4586 21.9145C30.6621 21.9145 29.9003 21.5043 29.9003 20.6325C29.9003 19.6838 30.8093 19.3248 31.649 19.3248C32.0559 19.3248 32.4195 19.3675 32.8004 19.4615ZM35.4062 18.4273H33.9951V17.9145H37.38V18.4273H35.9602V21.829H35.4062V18.4273ZM38.4188 20.1111C38.514 20.829 39.0334 21.3846 39.7953 21.3846C40.2974 21.3846 40.6783 21.188 41.0159 20.829L41.0851 20.7607L41.4834 21.1111L41.4141 21.188C40.9553 21.6667 40.4618 21.9145 39.7779 21.9145C38.6179 21.9145 37.8301 20.9658 37.8301 19.8632C37.8301 18.7949 38.5919 17.8205 39.7173 17.8205C40.8947 17.8205 41.5526 18.7863 41.5526 19.8718C41.5526 19.9231 41.544 19.9743 41.544 20.0256L41.5266 20.1111H38.4188ZM38.7391 17.4872V16.7094H39.449V17.4872H38.7391ZM39.9511 17.4872V16.7094H40.6523V17.4872H39.9511ZM43.4831 19.6239L41.8816 17.9145H42.6088L44.6258 20.1282V17.9145H45.1886V20.1282L47.2056 17.9145H47.9328L46.3313 19.6239L48.0021 21.829H47.3095L45.959 20.0256L45.1886 20.8547V21.829H44.6258V20.8547L43.8554 20.0256L42.5049 21.829H41.821L43.4831 19.6239ZM49.1448 19.5641H51.4562V17.9145H52.0189V21.829H51.4562V20.0855H49.1448V21.829H48.5907V17.9145H49.1448V19.5641ZM55.7847 19.4615V19.4273C55.7847 18.7094 55.3345 18.3846 54.642 18.3846C54.2264 18.3846 53.8628 18.4872 53.4993 18.6667L53.404 18.7179L53.1963 18.2222L53.2828 18.1795C53.733 17.9744 54.1572 17.8547 54.6593 17.8547C55.1181 17.8547 55.5856 17.9573 55.9232 18.2906C56.2262 18.5897 56.3387 18.9914 56.3387 19.4102V21.829H55.7847V21.3761C55.4298 21.735 54.9623 21.9145 54.4429 21.9145C53.6378 21.9145 52.8846 21.5043 52.8846 20.6325C52.8846 19.6838 53.7936 19.3248 54.6333 19.3248C55.0402 19.3248 55.3951 19.3675 55.7847 19.4615ZM58.2519 20.3077C57.6892 20.1538 57.2391 19.735 57.2391 19.1196C57.2391 18.2906 57.9576 17.9145 58.7194 17.9145H60.5114V21.829H59.9487V20.3932H58.8493L57.7325 21.829H57.0313L58.2519 20.3077ZM66.6838 18.4273H64.4676V21.829H63.9049V17.9145H67.2379V21.829H66.6838V18.4273ZM71.1941 18.4273H69.532C69.532 19.2051 69.5233 20.2222 69.3156 20.9743C69.2203 21.3248 69.0645 21.7008 68.6836 21.829C68.5537 21.8803 68.4152 21.8889 68.2767 21.8889C68.1469 21.8889 67.9564 21.8632 67.8352 21.829L67.7486 21.8034L67.8525 21.282L67.9564 21.3077C68.017 21.3248 68.1469 21.359 68.2161 21.359C68.2767 21.359 68.346 21.3504 68.4066 21.3333C68.6576 21.2649 68.7528 20.9402 68.8134 20.7179C68.9866 19.9829 68.9866 18.9658 68.9866 18.2051V17.9145H71.7482V21.829H71.1941V18.4273ZM75.5226 19.4615V19.4273C75.5226 18.7094 75.0724 18.3846 74.3799 18.3846C73.9643 18.3846 73.6008 18.4872 73.2372 18.6667L73.1419 18.7179L72.9342 18.2222L73.0207 18.1795C73.4709 17.9744 73.8951 17.8547 74.3972 17.8547C74.856 17.8547 75.3235 17.9573 75.6611 18.2906C75.9641 18.5897 76.068 18.9914 76.068 19.4102V21.829H75.5226V21.3761C75.1677 21.735 74.6915 21.9145 74.1721 21.9145C73.3757 21.9145 72.6225 21.5043 72.6225 20.6325C72.6225 19.6838 73.5315 19.3248 74.3712 19.3248C74.7781 19.3248 75.133 19.3675 75.5226 19.4615ZM78.1284 18.4273H76.7086V17.9145H80.0935V18.4273H78.6824V21.829H78.1284V18.4273ZM83.1061 21.5983C82.8377 21.7949 82.5694 21.9145 82.2058 21.9145C81.0458 21.9145 80.5696 20.8718 80.5696 19.8547C80.5696 18.8461 81.0458 17.8205 82.2058 17.8205C82.578 17.8205 82.8377 17.9402 83.1061 18.1453V16.5214H83.6602V18.1453C83.9199 17.9402 84.1882 17.8205 84.5605 17.8205C85.7205 17.8205 86.1967 18.8547 86.1967 19.8718C86.1967 20.8803 85.7119 21.9145 84.5605 21.9145C84.1623 21.9145 83.9285 21.812 83.6602 21.6068V23H83.1061V21.5983ZM88.9063 21.9145C87.7463 21.9145 86.8719 21 86.8719 19.8718C86.8719 18.7436 87.7636 17.8205 88.9149 17.8205C90.075 17.8205 90.9493 18.7436 90.9493 19.8718C90.9493 20.9914 90.0577 21.9145 88.9063 21.9145ZM92.4297 18.547C92.7933 18.1026 93.2607 17.8205 93.8841 17.8205C95.0268 17.8205 95.8146 18.7778 95.8146 19.8718C95.8146 20.9573 95.0181 21.9145 93.8841 21.9145C93.2781 21.9145 92.7933 21.6581 92.4297 21.2222V23H91.867V17.9145H92.4297V18.547ZM98.7147 19.9829L100.204 17.9145H100.671V21.829H100.117V18.9231L98.6973 20.8547L97.2949 18.9316V21.829H96.7495V17.9145H97.2256L98.7147 19.9829ZM104.446 19.4615V19.4273C104.446 18.7094 103.995 18.3846 103.303 18.3846C102.887 18.3846 102.524 18.4872 102.16 18.6667L102.065 18.7179L101.857 18.2222L101.944 18.1795C102.394 17.9744 102.818 17.8547 103.32 17.8547C103.779 17.8547 104.246 17.9573 104.584 18.2906C104.887 18.5897 105 18.9914 105 19.4102V21.829H104.446V21.3761C104.091 21.735 103.623 21.9145 103.104 21.9145C102.299 21.9145 101.545 21.5043 101.545 20.6325C101.545 19.6838 102.454 19.3248 103.294 19.3248C103.701 19.3248 104.056 19.3675 104.446 19.4615ZM32.8091 19.9914C32.4195 19.8974 32.0386 19.8461 31.6231 19.8461C31.1036 19.8461 30.489 20.0171 30.489 20.6325C30.489 21.1795 30.9824 21.3846 31.4759 21.3846C32.0992 21.3846 32.8091 21.0256 32.8091 20.3333V19.9914ZM38.4275 19.5983H40.9553C40.8687 18.9231 40.4618 18.3419 39.7087 18.3419C38.9815 18.3419 38.514 18.9402 38.4275 19.5983ZM55.7934 19.9914C55.3951 19.8974 55.0142 19.8461 54.6073 19.8461C54.0879 19.8461 53.4733 20.0171 53.4733 20.6325C53.4733 21.1795 53.9667 21.3846 54.4602 21.3846C55.0835 21.3846 55.7934 21.0256 55.7934 20.3333V19.9914ZM59.9487 19.8803V18.4273H58.7714C58.3039 18.4273 57.8277 18.6154 57.8277 19.1367C57.8277 19.6581 58.3212 19.8803 58.7887 19.8803H59.9487ZM75.5313 19.9914C75.133 19.8974 74.7521 19.8461 74.3453 19.8461C73.8258 19.8461 73.2112 20.0171 73.2112 20.6325C73.2112 21.1795 73.7046 21.3846 74.1981 21.3846C74.8214 21.3846 75.5313 21.0256 75.5313 20.3333V19.9914ZM83.1061 20.9914V18.7436C82.8637 18.5043 82.5954 18.359 82.2404 18.359C81.3747 18.359 81.1496 19.1624 81.1496 19.8803C81.1496 20.6325 81.3488 21.3761 82.2404 21.3761C82.5954 21.3761 82.8637 21.2393 83.1061 20.9914ZM83.6602 18.7436V20.9914C83.9026 21.2393 84.1709 21.3761 84.5259 21.3761C85.4175 21.3761 85.608 20.6154 85.608 19.8718C85.608 19.1538 85.3829 18.359 84.5259 18.359C84.1709 18.359 83.9026 18.5043 83.6602 18.7436ZM88.9149 21.3846C89.746 21.3846 90.3607 20.6581 90.3607 19.8718C90.3607 19.0684 89.7374 18.3504 88.9063 18.3504C88.0752 18.3504 87.4606 19.0684 87.4606 19.8718C87.4606 20.6837 88.0752 21.3846 88.9149 21.3846ZM93.8494 21.3761C94.7238 21.3761 95.2259 20.7008 95.2259 19.8718C95.2259 19.0684 94.6892 18.359 93.8494 18.359C93.0097 18.359 92.4037 19.0769 92.4037 19.8803C92.4037 20.6752 93.0184 21.3761 93.8494 21.3761ZM104.454 19.9914C104.056 19.8974 103.675 19.8461 103.268 19.8461C102.749 19.8461 102.134 20.0171 102.134 20.6325C102.134 21.1795 102.628 21.3846 103.121 21.3846C103.744 21.3846 104.454 21.0256 104.454 20.3333V19.9914Z" fill="#CC1626"/>
<path fill-rule="evenodd" clip-rule="evenodd" d="M7.5056 11.2734L13.2106 5.64089L7.5056 0.0169678C8.92535 0.0169678 10.3451 0.0169678 11.7648 0.0169678L17.4698 5.64089L11.7648 11.2734C10.3451 11.2734 8.92535 11.2734 7.5056 11.2734ZM0 11.2734L5.70495 5.64089L0 0.0169678C1.41974 0.0169678 2.83949 0.0169678 4.25923 0.0169678L9.96418 5.64089L4.25923 11.2734C2.83949 11.2734 1.41974 11.2734 0 11.2734Z" fill="#CC1626"/>
</svg>
