<svg width="46" height="46" viewBox="0 0 46 46" fill="none" xmlns="http://www.w3.org/2000/svg">
<mask id="path-1-inside-1" fill="white">
<path d="M37.7778 19.4375H36.8785V14.625H33.7309V12H11.6979C10.21 12 9 13.1773 9 14.625V33H36.8785V28.1875H37.7778V19.4375ZM11.6979 12.875H32.8316V14.625H9.89931C9.89931 13.6599 10.706 12.875 11.6979 12.875ZM35.9792 32.125H9.89931V15.5H35.9792V19.4375H28.3913C25.9119 19.4375 23.8947 21.4001 23.8947 23.8125C23.8947 26.2249 25.9119 28.1875 28.3913 28.1875H35.9792V32.125ZM36.8785 27.3125H28.3913C26.4079 27.3125 24.7941 25.7423 24.7941 23.8125C24.7941 21.8827 26.4079 20.3125 28.3913 20.3125H36.8785V27.3125Z"/>
</mask>
<path d="M37.7778 19.4375H36.8785V14.625H33.7309V12H11.6979C10.21 12 9 13.1773 9 14.625V33H36.8785V28.1875H37.7778V19.4375ZM11.6979 12.875H32.8316V14.625H9.89931C9.89931 13.6599 10.706 12.875 11.6979 12.875ZM35.9792 32.125H9.89931V15.5H35.9792V19.4375H28.3913C25.9119 19.4375 23.8947 21.4001 23.8947 23.8125C23.8947 26.2249 25.9119 28.1875 28.3913 28.1875H35.9792V32.125ZM36.8785 27.3125H28.3913C26.4079 27.3125 24.7941 25.7423 24.7941 23.8125C24.7941 21.8827 26.4079 20.3125 28.3913 20.3125H36.8785V27.3125Z" fill="#7F859C"/>
<path d="M37.7778 19.4375H38.7778V18.4375H37.7778V19.4375ZM36.8785 19.4375H35.8785V20.4375H36.8785V19.4375ZM36.8785 14.625H37.8785V13.625H36.8785V14.625ZM33.7309 14.625H32.7309V15.625H33.7309V14.625ZM33.7309 12H34.7309V11H33.7309V12ZM9 33H8V34H9V33ZM36.8785 33V34H37.8785V33H36.8785ZM36.8785 28.1875V27.1875H35.8785V28.1875H36.8785ZM37.7778 28.1875V29.1875H38.7778V28.1875H37.7778ZM32.8316 12.875H33.8316V11.875H32.8316V12.875ZM32.8316 14.625V15.625H33.8316V14.625H32.8316ZM9.89931 14.625H8.89931V15.625H9.89931V14.625ZM35.9792 32.125V33.125H36.9792V32.125H35.9792ZM9.89931 32.125H8.89931V33.125H9.89931V32.125ZM9.89931 15.5V14.5H8.89931V15.5H9.89931ZM35.9792 15.5H36.9792V14.5H35.9792V15.5ZM35.9792 19.4375V20.4375H36.9792V19.4375H35.9792ZM35.9792 28.1875H36.9792V27.1875H35.9792V28.1875ZM36.8785 27.3125V28.3125H37.8785V27.3125H36.8785ZM36.8785 20.3125H37.8785V19.3125H36.8785V20.3125ZM37.7778 18.4375H36.8785V20.4375H37.7778V18.4375ZM37.8785 19.4375V14.625H35.8785V19.4375H37.8785ZM36.8785 13.625H33.7309V15.625H36.8785V13.625ZM34.7309 14.625V12H32.7309V14.625H34.7309ZM33.7309 11H11.6979V13H33.7309V11ZM11.6979 11C9.68374 11 8 12.5994 8 14.625H10C10 13.7552 10.7363 13 11.6979 13V11ZM8 14.625V33H10V14.625H8ZM9 34H36.8785V32H9V34ZM37.8785 33V28.1875H35.8785V33H37.8785ZM36.8785 29.1875H37.7778V27.1875H36.8785V29.1875ZM38.7778 28.1875V19.4375H36.7778V28.1875H38.7778ZM11.6979 13.875H32.8316V11.875H11.6979V13.875ZM31.8316 12.875V14.625H33.8316V12.875H31.8316ZM32.8316 13.625H9.89931V15.625H32.8316V13.625ZM10.8993 14.625C10.8993 14.2378 11.2323 13.875 11.6979 13.875V11.875C10.1797 11.875 8.89931 13.0819 8.89931 14.625H10.8993ZM35.9792 31.125H9.89931V33.125H35.9792V31.125ZM10.8993 32.125V15.5H8.89931V32.125H10.8993ZM9.89931 16.5H35.9792V14.5H9.89931V16.5ZM34.9792 15.5V19.4375H36.9792V15.5H34.9792ZM35.9792 18.4375H28.3913V20.4375H35.9792V18.4375ZM28.3913 18.4375C25.3856 18.4375 22.8947 20.8222 22.8947 23.8125H24.8947C24.8947 21.9781 26.4382 20.4375 28.3913 20.4375V18.4375ZM22.8947 23.8125C22.8947 26.8028 25.3856 29.1875 28.3913 29.1875V27.1875C26.4382 27.1875 24.8947 25.6469 24.8947 23.8125H22.8947ZM28.3913 29.1875H35.9792V27.1875H28.3913V29.1875ZM34.9792 28.1875V32.125H36.9792V28.1875H34.9792ZM36.8785 26.3125H28.3913V28.3125H36.8785V26.3125ZM28.3913 26.3125C26.9341 26.3125 25.7941 25.1644 25.7941 23.8125H23.7941C23.7941 26.3202 25.8816 28.3125 28.3913 28.3125V26.3125ZM25.7941 23.8125C25.7941 22.4606 26.9341 21.3125 28.3913 21.3125V19.3125C25.8816 19.3125 23.7941 21.3048 23.7941 23.8125H25.7941ZM28.3913 21.3125H36.8785V19.3125H28.3913V21.3125ZM35.8785 20.3125V27.3125H37.8785V20.3125H35.8785Z" fill="#7F859C" mask="url(#path-1-inside-1)"/>
<mask id="path-3-inside-2" fill="white">
<path d="M26.166 23.5745C26.166 24.5396 26.9727 25.3245 27.9646 25.3245C28.9566 25.3245 29.7632 24.5396 29.7632 23.5745C29.7632 22.6093 28.9566 21.8245 27.9646 21.8245C26.9727 21.8245 26.166 22.6093 26.166 23.5745ZM27.9646 22.6995C28.4606 22.6995 28.8639 23.0919 28.8639 23.5745C28.8639 24.057 28.4606 24.4495 27.9646 24.4495C27.4687 24.4495 27.0653 24.057 27.0653 23.5745C27.0653 23.0919 27.4687 22.6995 27.9646 22.6995Z"/>
</mask>
<path d="M26.166 23.5745C26.166 24.5396 26.9727 25.3245 27.9646 25.3245C28.9566 25.3245 29.7632 24.5396 29.7632 23.5745C29.7632 22.6093 28.9566 21.8245 27.9646 21.8245C26.9727 21.8245 26.166 22.6093 26.166 23.5745ZM27.9646 22.6995C28.4606 22.6995 28.8639 23.0919 28.8639 23.5745C28.8639 24.057 28.4606 24.4495 27.9646 24.4495C27.4687 24.4495 27.0653 24.057 27.0653 23.5745C27.0653 23.0919 27.4687 22.6995 27.9646 22.6995Z" fill="#7F859C"/>
<path d="M25.166 23.5745C25.166 25.1175 26.4464 26.3245 27.9646 26.3245V24.3245C27.499 24.3245 27.166 23.9617 27.166 23.5745H25.166ZM27.9646 26.3245C29.4828 26.3245 30.7632 25.1175 30.7632 23.5745H28.7632C28.7632 23.9617 28.4303 24.3245 27.9646 24.3245V26.3245ZM30.7632 23.5745C30.7632 22.0314 29.4828 20.8245 27.9646 20.8245V22.8245C28.4303 22.8245 28.7632 23.1873 28.7632 23.5745H30.7632ZM27.9646 20.8245C26.4464 20.8245 25.166 22.0314 25.166 23.5745H27.166C27.166 23.1873 27.499 22.8245 27.9646 22.8245V20.8245ZM27.9646 23.6995C27.9449 23.6995 27.9215 23.6908 27.9029 23.6727C27.8839 23.6542 27.8639 23.619 27.8639 23.5745H29.8639C29.8639 22.514 28.9869 21.6995 27.9646 21.6995V23.6995ZM27.8639 23.5745C27.8639 23.53 27.8839 23.4947 27.9029 23.4762C27.9215 23.4581 27.9449 23.4495 27.9646 23.4495V25.4495C28.9869 25.4495 29.8639 24.635 29.8639 23.5745H27.8639ZM27.9646 23.4495C27.9844 23.4495 28.0078 23.4581 28.0263 23.4762C28.0454 23.4947 28.0653 23.53 28.0653 23.5745H26.0653C26.0653 24.635 26.9424 25.4495 27.9646 25.4495V23.4495ZM28.0653 23.5745C28.0653 23.619 28.0454 23.6542 28.0263 23.6727C28.0078 23.6908 27.9844 23.6995 27.9646 23.6995V21.6995C26.9424 21.6995 26.0653 22.514 26.0653 23.5745H28.0653Z" fill="#7F859C" mask="url(#path-3-inside-2)"/>
<circle cx="23" cy="23" r="22.5" stroke="#7F859C"/>
</svg>
