<svg width="37" height="27" viewBox="0 0 37 27" fill="none" xmlns="http://www.w3.org/2000/svg">
<path d="M35.3438 9.5625V10.0625H35.8438H36.5V20.3125H35.8438H35.3438V20.8125V26.5H0.5V3.375C0.5 1.80266 1.81887 0.5 3.46875 0.5H31.2969V3.375V3.875H31.7969H35.3438V9.5625ZM31.1406 1.125V0.625H30.6406H3.46875C1.93027 0.625 0.65625 1.84516 0.65625 3.375V3.875H1.15625H30.6406H31.1406V3.375V1.125ZM34.6875 26.375H35.1875V25.875V20.8125V20.3125H34.6875H24.9316C22.007 20.3125 19.6504 18.0002 19.6504 15.1875C19.6504 12.3748 22.007 10.0625 24.9316 10.0625H34.6875H35.1875V9.5625V4.5V4H34.6875H1.15625H0.65625V4.5V25.875V26.375H1.15625H34.6875ZM35.8438 20.1875H36.3438V19.6875V10.6875V10.1875H35.8438H24.9316C22.1184 10.1875 19.8066 12.4173 19.8066 15.1875C19.8066 17.9577 22.1184 20.1875 24.9316 20.1875H35.8438Z" fill="#7F859C" stroke="#C2C4CF"/>
<path d="M24.3828 16.6315C23.3706 16.6315 22.5703 15.8334 22.5703 14.8815C22.5703 13.9296 23.3706 13.1315 24.3828 13.1315C25.395 13.1315 26.1953 13.9296 26.1953 14.8815C26.1953 15.8334 25.395 16.6315 24.3828 16.6315ZM26.0391 14.8815C26.0391 13.9721 25.2836 13.2565 24.3828 13.2565C23.482 13.2565 22.7266 13.9721 22.7266 14.8815C22.7266 15.7909 23.482 16.5065 24.3828 16.5065C25.2836 16.5065 26.0391 15.7909 26.0391 14.8815Z" fill="#7F859C" stroke="#C2C4CF"/>
</svg>
