<svg width="16" height="16" viewBox="0 0 16 16" fill="none" xmlns="http://www.w3.org/2000/svg">
<path d="M7.99984 0C3.58852 0 0 3.5888 0 8C0 12.4112 3.58852 16 7.99984 16C12.4112 16 16 12.4112 16 8C16 3.5888 12.4112 0 7.99984 0ZM7.99984 14.9508C4.1672 14.9508 1.0492 11.8326 1.0492 8C1.0492 4.16732 4.16716 1.04924 7.99984 1.04924C11.8325 1.04924 14.9507 4.16736 14.9507 8C14.9507 11.8326 11.8325 14.9508 7.99984 14.9508Z" fill="#7F859C"/>
<path d="M10.8954 5.38102L6.77014 9.50606L5.10258 7.83886C4.89766 7.63418 4.5657 7.63406 4.36078 7.83898C4.15578 8.04398 4.15578 8.37598 4.36078 8.5809L6.3993 10.6191C6.50174 10.7214 6.63594 10.7726 6.77014 10.7726C6.90434 10.7726 7.0389 10.7214 7.1413 10.6189L7.14238 10.6175L11.6371 6.12282C11.8421 5.91802 11.8421 5.58578 11.6371 5.38098C11.4323 5.17606 11.1001 5.17606 10.8954 5.38102Z" fill="#7F859C"/>
</svg>
