<svg xmlns="http://www.w3.org/2000/svg" viewBox="0 0 560.1 560.1">
	<g>
		<path fill="#ECDEDE" d="M140,37.6L140,37.6C274-39.8,445.2,6.1,522.5,140l0,0C599.9,274,554,445.2,420,522.5l0,0C286.1,599.9,114.9,554,37.6,420l0,0C-39.8,286.1,6.1,114.9,140,37.6z"/>
		<path fill="#ffffff" opacity="0.2" d="M100.6,170.9V-48.4h73.2v219.3c0,10.6,5.5,25.3,21,43.4c6.4,7.5,14,15,22.5,22.3c0.1,0,0.1-0.1,0.2-0.1c29.8-19.9,62.1-36,92-47.2c29.3-11,59.2-18.3,83.7-18.3c18,0,44.3,5.1,67.1,21.5c24.7,17.7,42.6,47,42.6,88.2c0,41.2-18,70.4-42.6,88.2c-22.8,16.4-49.1,21.5-67.1,21.5c-24.5,0-54.3-7.3-83.4-17.9c-29.6-10.8-61.4-26.1-90.9-44.4c-8.7,8.1-16.4,16.5-23,25.1c-15.2,19.9-22.2,38.5-22.2,55.5V573h-73.2V408.5c0-37.9,15.8-71.7,37.2-99.8c6.7-8.8,14.1-17.3,22.1-25.3c-7.4-6.9-14.4-14.2-20.8-21.6C117.9,237,100.6,205.9,100.6,170.9z M284.4,281.2c17,8.9,34.2,16.5,50.4,22.4c25.8,9.4,46.3,13.5,58.3,13.5c6.3,0,16.7-2.2,24.4-7.7c5.8-4.2,12.2-11.5,12.2-28.8c0-17.3-6.4-24.6-12.2-28.8c-7.7-5.5-18-7.7-24.4-7.7c-12,0-32.5,4.1-58,13.7C318.8,263.8,301.5,271.7,284.4,281.2z"/>
	</g>
</svg>
