<svg width="145" height="120" viewBox="0 0 145 120" fill="none" xmlns="http://www.w3.org/2000/svg">
<path d="M118.681 28.8116C118.07 28.8116 117.458 28.8342 116.869 28.8792C114.854 17.1879 104.594 8.28982 92.2498 8.28982C86.6102 8.28982 81.4009 10.1595 77.2108 13.2907C72.681 5.36135 64.1197 0 54.3126 0C39.7719 0 27.9943 11.7139 27.9943 26.176C27.9943 27.0996 28.0396 28.0007 28.1302 28.8792C27.5413 28.8342 26.9298 28.8116 26.3183 28.8116C11.7775 28.8116 0 40.5255 0 54.9876C0 69.4498 11.7775 81.1636 26.3183 81.1636H118.659C133.199 81.1636 144.977 69.4498 144.977 54.9876C145 40.5255 133.222 28.8116 118.681 28.8116Z" fill="#AAD0E2"/>
<path d="M118.681 28.8116C118.07 28.8116 117.458 28.8342 116.869 28.8792C114.854 17.1879 104.594 8.28982 92.2498 8.28982C86.6102 8.28982 81.4009 10.1595 77.2108 13.2907C72.681 5.36135 64.1197 0 54.3126 0C39.7719 0 27.9943 11.7139 27.9943 26.176C27.9943 27.0996 28.0396 28.0007 28.1302 28.8792C27.5413 28.8342 26.9298 28.8116 26.3183 28.8116C11.7775 28.8116 0 40.5255 0 54.9876C0 69.4498 11.7775 81.1636 26.3183 81.1636H118.659C133.199 81.1636 144.977 69.4498 144.977 54.9876C145 40.5255 133.222 28.8116 118.681 28.8116Z" fill="#7F859C"/>
<path d="M65.0033 5.78986C62.5572 5.02395 59.9752 4.59595 57.28 4.59595C43.2602 4.59595 31.8903 15.9043 31.8903 29.8484C31.8903 30.7269 31.9356 31.6054 32.0262 32.4615C31.46 32.4164 30.8711 32.3939 30.2822 32.3939C16.2624 32.3939 4.89258 43.7023 4.89258 57.6463C4.89258 62.2192 6.11563 66.5218 8.2673 70.2162C7.29338 58.8177 9.03737 37.0794 36.4881 37.5975C36.2163 30.1863 37.53 6.84861 65.0033 5.78986Z" fill="#8F95AC"/>
<path d="M39.0703 81.1416H118.682C133.223 81.1416 145 69.4277 145 54.9656C145 51.8794 144.457 48.9284 143.483 46.1802C126.179 80.0603 67.6535 77.0643 39.0703 81.1416Z" fill="#686E85"/>
<path d="M87.4483 92.381V59.3794H57.5967V92.381H44.7773L72.5225 119.999L100.268 92.381H87.4483Z" fill="#E4D6D6"/>
<path d="M57.5967 79.3171V81.1418H87.4709V76.231C77.1882 77.7853 66.8602 78.5737 57.5967 79.3171Z" fill="#F5E7E7"/>
<path d="M87.4483 81.1406H57.5967V92.3814H44.7773L72.5225 119.999L100.268 92.3814H87.4483V81.1406Z" fill="#ECDEDE"/>
<path d="M72.5221 120L68.2188 115.698L100.267 92.3826L72.5221 120Z" fill="#E6D8D8"/>
</svg>
