<svg width="48" height="48" viewBox="0 0 48 48" fill="none" xmlns="http://www.w3.org/2000/svg">
<g clip-path="url(#clip0)">
<path d="M40.0212 30.0493C40.0232 30.0614 40.0251 30.0735 40.0266 30.0857L41.805 44.1323C41.8613 44.5762 41.5959 44.9979 41.1714 45.1395C35.5281 47.0205 30.0337 48 24.013 48H23.9869C18.2184 48 12.7195 47.1044 6.82838 45.1393C6.40398 44.9977 6.13876 44.5761 6.19492 44.1322C6.19492 44.1322 7.97663 30.0613 7.9786 30.0492C8.63429 26.1169 11.0441 22.6741 14.4834 20.7027L11.8379 9.59212C11.7715 9.31303 11.8364 9.01894 12.0143 8.79384C12.1921 8.56875 12.463 8.4375 12.7499 8.4375C13.7838 8.4375 14.6249 7.59637 14.6249 6.5625V0.9375C14.6249 0.419719 15.0447 0 15.5624 0H21.1874C21.7051 0 22.1249 0.419719 22.1249 0.9375V3.75C22.1249 4.78387 22.966 5.625 23.9999 5.625C25.0338 5.625 25.8749 4.78387 25.8749 3.75V0.9375C25.8749 0.419719 26.2946 0 26.8124 0H32.4374C32.9552 0 33.3749 0.419719 33.3749 0.9375V6.5625C33.3749 7.59637 34.216 8.4375 35.2499 8.4375C35.5368 8.4375 35.8078 8.56884 35.9856 8.79394C36.1633 9.01903 36.2283 9.31312 36.1619 9.59222L33.5166 20.7028C36.9558 22.6742 39.3656 26.117 40.0212 30.0493ZM32.2089 22.125H28.2187C27.7009 22.125 27.2812 21.7053 27.2812 21.1875C27.2812 20.6697 27.7009 20.25 28.2187 20.25H31.6969L34.1055 10.134C32.5957 9.64903 31.4999 8.23134 31.4999 6.5625V1.875H27.7499V3.75C27.7499 5.81775 26.0677 7.5 23.9999 7.5C21.9322 7.5 20.2499 5.81775 20.2499 3.75V1.875H16.4999V6.5625C16.4999 8.23134 15.4042 9.64903 13.8943 10.134L16.3029 20.25H19.7812C20.2989 20.25 20.7187 20.6697 20.7187 21.1875C20.7187 21.7053 20.2989 22.125 19.7812 22.125H15.7909C12.6429 23.7746 10.4222 26.8283 9.83101 30.3397L8.15223 43.5996C10.157 44.2413 12.0944 44.7476 14.0301 45.1378L14.6277 37.5204C14.6682 37.0043 15.1191 36.6179 15.6357 36.6592C16.1519 36.6997 16.5375 37.151 16.4971 37.6671L15.8844 45.4766C18.2512 45.8635 20.6152 46.0742 23.0625 46.1164V38.0625C23.0625 37.5447 23.4823 37.125 24 37.125C24.5177 37.125 24.9375 37.5447 24.9375 38.0625V46.1164C27.3846 46.0742 29.7485 45.8635 32.1157 45.4766L31.5029 37.6671C31.4624 37.1509 31.848 36.6997 32.3642 36.6592C32.881 36.6184 33.3316 37.0042 33.3721 37.5204L33.9698 45.1378C35.9031 44.7479 37.8404 44.2417 39.8476 43.5995L38.1688 30.3399C37.5776 26.8284 35.3571 23.7746 32.2089 22.125Z" fill="#7F859C"/>
<path d="M24 22.125C23.4822 22.125 23.0625 21.7053 23.0625 21.1875C23.0625 20.6697 23.4822 20.25 24 20.25C24.5178 20.25 24.9375 20.6697 24.9375 21.1875C24.9375 21.7053 24.5178 22.125 24 22.125Z" fill="#7F859C"/>
</g>
<defs>
<clipPath id="clip0">
<rect width="48" height="48" fill="white" transform="matrix(-1 0 0 1 48 0)"/>
</clipPath>
</defs>
</svg>
