<svg width="40" height="40" viewBox="0 0 40 40" fill="none" xmlns="http://www.w3.org/2000/svg">
<path d="M17.1287 24.3818C17.3196 24.5727 17.5768 24.6723 17.8341 24.6723C18.0914 24.6723 18.3403 24.5727 18.5395 24.3818L25.8839 17.0374C26.2739 16.6474 26.2739 16.0167 25.8839 15.6266C25.4938 15.2366 24.8631 15.2366 24.4731 15.6266L17.8258 22.274L15.5187 19.9669C15.1287 19.5769 14.498 19.5769 14.108 19.9669C13.7179 20.3569 13.7179 20.9876 14.108 21.3777L17.1287 24.3818Z" fill="#7F859C"/>
<path d="M9.44383 5.19494C9.6347 5.19494 9.82557 5.13685 9.99985 5.02896C10.4563 4.72191 10.5808 4.0995 10.2737 3.64307C9.96665 3.18664 9.35255 3.06215 8.88782 3.36921C8.43139 3.67626 8.30691 4.29037 8.61396 4.7468C8.80483 5.03726 9.12018 5.19494 9.44383 5.19494Z" fill="#7F859C"/>
<path d="M6.56433 7.55994C6.82159 7.55994 7.07885 7.46035 7.26972 7.26948C7.65976 6.87944 7.65976 6.24873 7.26972 5.85869C6.87968 5.46865 6.24898 5.46865 5.85894 5.85869C5.4689 6.24873 5.4689 6.87944 5.85894 7.26948C6.04981 7.46035 6.30707 7.55994 6.56433 7.55994Z" fill="#7F859C"/>
<path d="M12.7222 3.43595C12.8467 3.43595 12.9795 3.41105 13.1039 3.36126C13.6102 3.15379 13.8508 2.56458 13.6434 2.05836C13.4359 1.55213 12.8467 1.31147 12.3405 1.51894C11.8342 1.72641 11.5936 2.31562 11.801 2.82184C11.9587 3.20358 12.3322 3.43595 12.7222 3.43595Z" fill="#7F859C"/>
<path d="M3.64368 10.2658C3.80965 10.382 4.00882 10.4318 4.1997 10.4318C4.52335 10.4318 4.8387 10.2741 5.02957 9.99192C5.33663 9.53549 5.21215 8.91308 4.75571 8.61433C4.29928 8.30727 3.67687 8.43175 3.36982 8.88819C3.06276 9.34462 3.18725 9.95873 3.64368 10.2658Z" fill="#7F859C"/>
<path d="M2.05823 13.6431C2.18272 13.6929 2.3155 13.7178 2.43998 13.7178C2.83002 13.7178 3.20346 13.4854 3.36114 13.1036C3.56861 12.5974 3.32794 12.0165 2.82172 11.8007C2.3155 11.585 1.73458 11.8339 1.51882 12.3402C1.31135 12.8547 1.55201 13.4356 2.05823 13.6431Z" fill="#7F859C"/>
<path d="M16.282 2.357C16.3484 2.357 16.4065 2.3487 16.4729 2.3404C17.0123 2.23252 17.3609 1.7097 17.253 1.17028C17.1451 0.630857 16.6223 0.282309 16.0829 0.390193C15.5435 0.498077 15.1949 1.0209 15.3028 1.56032C15.4024 2.02505 15.8173 2.357 16.282 2.357Z" fill="#7F859C"/>
<path d="M1.161 17.2695C1.22739 17.2778 1.29378 17.2861 1.35187 17.2861C1.8166 17.2861 2.23154 16.9541 2.33112 16.4811C2.43901 15.9417 2.09046 15.4189 1.55104 15.311C1.01162 15.2031 0.488799 15.5516 0.380916 16.091C0.273032 16.6388 0.62158 17.1616 1.161 17.2695Z" fill="#7F859C"/>
<path d="M34.1411 5.85892C30.3651 2.08299 25.3444 0 20 0C19.4523 0 19.0042 0.448133 19.0042 0.995851C19.0042 1.54357 19.4523 1.9917 20 1.9917C29.9336 1.9917 38.0083 10.0664 38.0083 20C38.0083 29.9336 29.9336 38.0083 20 38.0083C10.0664 38.0083 1.9917 29.9336 1.9917 20C1.9917 19.4523 1.54357 19.0042 0.995851 19.0042C0.448133 19.0042 0 19.4523 0 20C0 25.3444 2.08299 30.3651 5.85892 34.1411C9.63486 37.917 14.6556 40 20 40C25.3444 40 30.3651 37.917 34.1411 34.1411C37.917 30.3651 40 25.3444 40 20C40 14.6556 37.917 9.63486 34.1411 5.85892Z" fill="#7F859C"/>
</svg>
