<svg width="48" height="48" viewBox="0 0 48 48" fill="none" xmlns="http://www.w3.org/2000/svg">
<g clip-path="url(#clip0)">
<path d="M41.9952 23.2083C41.2584 22.1082 41.209 21.9745 41.1497 20.5876C41.1108 19.6798 41.0665 18.6511 40.4604 17.818C39.4937 16.4897 37.6282 16.3572 36.7335 15.7061C35.8978 15.0978 35.2211 13.4989 33.8064 12.9001V4.97314C33.8064 2.23096 31.5754 0 28.8333 0H9.94189C7.19971 0 4.96875 2.23096 4.96875 4.97314V35.3826C4.96875 38.1248 7.19971 40.3557 9.94189 40.3557H22.9189V46.1078C22.9189 47.7385 24.8456 48.6013 26.0625 47.5188L28.8827 45.0106C29.1292 44.7913 29.5009 44.7913 29.7477 45.0106L32.5675 47.5192C33.7855 48.6021 35.7111 47.7374 35.7111 46.1078V37.2539C36.6156 36.1084 36.6841 36.03 38.0237 35.5331C40.4659 34.6271 41.038 33.8427 41.1497 31.2458C41.209 29.8608 41.2577 29.7257 41.9952 28.6249C42.5087 27.8577 43.0913 26.9879 43.0913 25.9167C43.0909 24.8452 42.5087 23.9758 41.9952 23.2083ZM9.94189 38.4807C8.23352 38.4807 6.84375 37.0909 6.84375 35.3826V4.97314C6.84375 3.26477 8.23352 1.875 9.94189 1.875H28.8333C30.5416 1.875 31.9314 3.26477 31.9314 4.97314V12.7324C30.7903 12.9203 29.907 13.3956 28.9849 13.2729C27.8632 13.1235 26.447 12.3604 25.0573 12.8115C24.0549 13.1371 23.4111 13.9545 22.8431 14.6755C22.0082 15.7361 21.8921 15.8232 20.6063 16.3C18.2523 17.1735 17.595 17.9136 17.4803 20.5876C17.421 21.9708 17.3745 22.1045 16.6348 23.2083C16.0697 24.0524 15.5387 24.884 15.5387 25.9167C15.5387 27.5867 16.983 28.8131 17.3093 29.8176C17.8125 31.3682 16.7516 33.8533 19.7391 35.1888C21.7749 36.0992 21.5929 35.5745 22.9189 37.2539V38.4807H9.94189ZM33.8361 46.1078V46.1155C33.8313 46.1195 33.8225 46.1235 33.8225 46.1246C33.8221 46.1246 33.8192 46.1232 33.8134 46.118L30.9935 43.6095C30.0366 42.7588 28.5934 42.7588 27.6365 43.6099C27.6255 43.6198 24.8188 46.1136 24.8104 46.1232C24.8042 46.1221 24.7947 46.1191 24.7943 46.1188C24.7939 42.6694 24.7936 51.873 24.7936 38.922C26.436 39.6368 28.0822 38.5367 29.3148 38.5367C30.4633 38.5367 32.0486 39.52 33.5728 39.022C33.6669 38.9912 33.7903 38.9421 33.8361 38.922V46.1078ZM40.437 27.5819C39.5123 28.9629 39.3516 29.4122 39.2765 31.1656C39.1981 32.9894 39.0912 33.1373 37.3715 33.7753C36.7771 33.9961 36.1626 34.2239 35.6301 34.6113C34.552 35.3961 33.8873 36.865 33.0718 37.2092C32.3038 37.5322 30.9379 36.7555 29.5682 36.6702C27.787 36.5585 26.2983 37.7314 25.3403 37.0895C24.6046 36.5944 24.0007 35.3401 22.9995 34.6113C22.229 34.0503 21.2435 33.8093 20.4961 33.4742C19.4872 33.0223 19.4172 32.6543 19.3535 31.1656C19.292 29.7301 19.1993 29.1328 18.4512 27.973C17.235 26.0867 17.0094 26.0189 18.1926 24.252C19.1312 22.8505 19.2788 22.4066 19.3535 20.6678C19.4304 18.8694 19.5198 18.7031 21.2582 18.0582C23.1844 17.3434 23.3405 17.0336 24.5625 15.5255C25.5051 14.3617 25.7897 14.38 27.3699 14.8195C29.035 15.2827 29.5463 15.2959 31.2594 14.8198C32.9923 14.3386 33.1666 14.3789 34.3143 15.8361C35.3646 17.1694 35.7488 17.4562 37.3715 18.0582C39.0912 18.6962 39.1985 18.8441 39.2765 20.6682C39.3516 22.4216 39.5127 22.871 40.437 24.252C41.4745 25.8007 41.4745 26.0325 40.437 27.5819Z" fill="#7F859C"/>
<path d="M36.1233 24.979C35.6058 24.979 35.1862 25.3986 35.1862 25.9165C35.1862 29.1534 32.5524 31.7872 29.3151 31.7872C26.0781 31.7872 23.4443 29.1534 23.4443 25.9165C23.4443 21.4231 28.304 18.6153 32.1832 20.7924C32.6348 21.0462 33.2064 20.8855 33.4595 20.4336C33.7129 19.9824 33.5521 19.4107 33.101 19.1573C27.9799 16.2833 21.5693 19.9886 21.5693 25.9165C21.5693 30.1876 25.0439 33.6622 29.3151 33.6622C33.5862 33.6622 37.0608 30.1876 37.0608 25.9165C37.0608 25.3986 36.6411 24.979 36.1233 24.979Z" fill="#7F859C"/>
<path d="M35.1445 23.3359H35.1471C35.6646 23.3359 36.0831 22.9163 36.0831 22.3984C36.0831 21.881 35.6624 21.4613 35.1445 21.4613C34.6267 21.4613 34.207 21.881 34.207 22.3984C34.207 22.9163 34.6271 23.3359 35.1445 23.3359Z" fill="#7F859C"/>
<path d="M11.5439 8.78101H27.231C27.7484 8.78101 28.1685 8.36096 28.1685 7.84351C28.1685 7.32568 27.7484 6.90601 27.231 6.90601H11.5439C11.0261 6.90601 10.6064 7.32568 10.6064 7.84351C10.6064 8.36096 11.0261 8.78101 11.5439 8.78101Z" fill="#7F859C"/>
<path d="M11.5439 15.218H19.7485C20.2664 15.218 20.686 14.798 20.686 14.2805C20.686 13.7627 20.2664 13.343 19.7485 13.343H11.5439C11.0261 13.343 10.6064 13.7627 10.6064 14.2805C10.6064 14.798 11.0261 15.218 11.5439 15.218Z" fill="#7F859C"/>
<path d="M11.5439 21.6555H14.8739C15.3917 21.6555 15.8114 21.2355 15.8114 20.718C15.8114 20.2002 15.3917 19.7805 14.8739 19.7805H11.5439C11.0261 19.7805 10.6064 20.2002 10.6064 20.718C10.6064 21.2355 11.0261 21.6555 11.5439 21.6555Z" fill="#7F859C"/>
<path d="M15.4364 31.8113H11.5439C11.0261 31.8113 10.6064 32.231 10.6064 32.7488C10.6064 33.2662 11.0261 33.6863 11.5439 33.6863H15.4364C15.9539 33.6863 16.3739 33.2662 16.3739 32.7488C16.3739 32.231 15.9539 31.8113 15.4364 31.8113Z" fill="#7F859C"/>
<path d="M11.5439 28.0928H13.1864C13.7042 28.0928 14.1239 27.6727 14.1239 27.1553C14.1239 26.6375 13.7042 26.2178 13.1864 26.2178H11.5439C11.0261 26.2178 10.6064 26.6375 10.6064 27.1553C10.6064 27.6727 11.0261 28.0928 11.5439 28.0928Z" fill="#7F859C"/>
</g>
<defs>
<clipPath id="clip0">
<rect width="48" height="48" fill="white"/>
</clipPath>
</defs>
</svg>
