<svg width="411" height="231" viewBox="0 0 411 231" fill="none" xmlns="http://www.w3.org/2000/svg">
<g opacity="0.8">
<path opacity="0.6" d="M205.5 230.985C318.995 230.985 411 202.854 411 168.154C411 133.453 318.995 105.323 205.5 105.323C92.0055 105.323 0 133.453 0 168.154C0 202.854 92.0055 230.985 205.5 230.985Z" fill="#F5F5F7"/>
<path d="M383.711 85.5861C385.103 85.6645 385.796 85.7067 387.188 85.785C387.755 83.4227 388.038 82.2415 388.604 79.8792C394.432 108.131 400.386 136.352 406.449 164.55C404.05 168.015 402.845 169.745 400.428 173.204C394.739 144.024 389.171 114.814 383.711 85.5861Z" fill="#68578C"/>
<path d="M302.344 179.965C335.103 178.411 367.802 176.163 400.465 173.246C394.813 144.066 389.256 114.874 383.815 85.6524C358.323 87.8279 332.813 89.5816 307.261 90.9135C305.737 120.605 304.097 150.291 302.344 179.965ZM359.83 89.895C359.83 89.0031 360.553 88.2739 361.445 88.2739C362.336 88.2739 363.066 88.9971 363.066 89.895C363.066 90.7869 362.343 91.5161 361.445 91.5161C360.553 91.5101 359.83 90.7869 359.83 89.895ZM328.125 92.0826C328.125 91.1907 328.848 90.4615 329.74 90.4615C330.632 90.4615 331.361 91.1846 331.361 92.0826C331.361 92.9745 330.638 93.6976 329.74 93.6976C328.848 93.7037 328.125 92.9805 328.125 92.0826Z" fill="#7C6E99"/>
<path d="M312.945 85.7791C312.343 87.8762 311.993 89.0755 311.463 90.9136C335.574 89.5395 359.65 87.7979 383.707 85.6766C385.232 85.8815 385.991 85.9779 387.516 86.1828C387.944 83.6698 388.155 82.4103 388.583 79.9033C363.398 82.2717 338.19 84.2303 312.945 85.7791ZM360.445 84.4171C360.445 83.6819 361.042 83.0853 361.777 83.0853C362.512 83.0853 363.109 83.6819 363.109 84.4171C363.109 85.1523 362.512 85.7489 361.777 85.7489C361.042 85.755 360.445 85.1583 360.445 84.4171ZM333.122 86.4179C333.122 85.6826 333.718 85.086 334.454 85.086C335.189 85.086 335.785 85.6826 335.785 86.4179C335.785 87.1531 335.189 87.7497 334.454 87.7497C333.718 87.7497 333.122 87.1531 333.122 86.4179Z" fill="#483864"/>
<path d="M334.296 88.7138C334.284 88.5149 334.266 88.3221 334.254 88.1232C333.742 78.3906 337.894 65.4519 346.584 64.6986C355.274 63.9453 360.842 76.0463 361.427 85.7729C361.439 85.9718 361.433 85.9537 361.439 86.1466C361.547 86.1345 361.602 86.1285 361.704 86.1164C361.698 85.9236 361.704 85.9416 361.692 85.7428C361.095 75.8233 355.419 63.4873 346.56 64.2527C337.695 65.018 333.464 78.2158 333.989 88.1413C334.001 88.3402 334.013 88.533 334.025 88.7319C334.133 88.7259 334.188 88.7198 334.296 88.7138Z" stroke="#483864" stroke-width="1.5361" stroke-miterlimit="10"/>
<path d="M329.802 93.8724C329.79 93.6554 329.772 93.4385 329.76 93.2215C329.187 82.6091 333.882 68.2421 343.916 67.4346C353.944 66.6211 360.271 80.1141 360.934 90.7146C360.946 90.9315 360.946 91.0701 360.958 91.281C361.085 91.2509 361.151 91.2389 361.278 91.2148C361.266 90.9978 361.254 90.9014 361.242 90.6844C360.561 79.9876 354.257 66.1148 343.886 66.9465C333.514 67.7781 328.868 82.5247 329.446 93.2456C329.458 93.4626 329.477 93.6795 329.489 93.8965C329.615 93.8844 329.675 93.8784 329.802 93.8724Z" stroke="#7C6E99" stroke-width="1.4958" stroke-miterlimit="10"/>
<path opacity="0.2" d="M343.402 88.7981L347.735 88.5149L365.2 176.157L358.92 176.627L343.402 88.7981Z" fill="#7C6E99"/>
<path d="M30.6614 84.2542C29.2693 84.3326 28.5763 84.3748 27.1842 84.4531C26.6177 82.0908 26.3345 80.9096 25.768 78.5472C19.9405 106.799 13.9864 135.021 7.92383 163.218C10.3223 166.683 11.5276 168.413 13.9442 171.872C19.6331 142.692 25.2015 113.482 30.6614 84.2542Z" fill="#EFB0B0"/>
<path d="M80.078 87.382C80.09 87.1831 80.1081 86.9903 80.1201 86.7914C80.6324 77.0588 76.4862 64.1201 67.7901 63.3668C59.1001 62.6135 53.5317 74.7145 52.9471 84.4411C52.9351 84.64 52.9411 84.6219 52.9351 84.8147C52.8266 84.8027 52.7724 84.7966 52.6699 84.7846C52.682 84.5917 52.6699 84.6098 52.682 84.4109C53.2786 74.4915 58.9555 62.1555 67.8142 62.9208C76.673 63.6862 80.9096 76.884 80.3853 86.8095C80.3733 87.0083 80.3612 87.2012 80.3491 87.4C80.2407 87.394 80.1925 87.388 80.078 87.382Z" stroke="#F09A9A" stroke-width="1.5361" stroke-miterlimit="10"/>
<path d="M107.107 89.5816C81.5546 88.2498 56.0449 86.4961 30.5533 84.3206C25.1114 113.537 19.5551 142.734 13.9023 171.914C46.5654 174.831 79.2706 177.079 112.024 178.634C110.276 148.954 108.637 119.274 107.107 89.5816ZM52.9293 90.1782C52.0374 90.1782 51.3082 89.455 51.3082 88.5631C51.3082 87.6712 52.0313 86.942 52.9293 86.942C53.8212 86.942 54.5504 87.6652 54.5504 88.5631C54.5504 89.455 53.8212 90.1782 52.9293 90.1782ZM84.6341 92.3658C83.7422 92.3658 83.019 91.6426 83.019 90.7507C83.019 89.8588 83.7422 89.1296 84.6341 89.1296C85.526 89.1296 86.2552 89.8528 86.2552 90.7507C86.2552 91.6426 85.526 92.3658 84.6341 92.3658Z" fill="#F3D0D0"/>
<path d="M25.7988 78.5593C26.2267 81.0723 26.4376 82.3258 26.8655 84.8388C28.3902 84.6399 29.1555 84.5375 30.6742 84.3326C54.7315 86.4599 78.807 88.2015 102.919 89.5695C102.388 87.7315 102.039 86.5262 101.43 84.4351C76.1855 82.8923 50.9831 80.9398 25.7988 78.5593ZM52.5982 84.417C51.863 84.417 51.2664 83.8204 51.2664 83.0852C51.2664 82.3499 51.863 81.7533 52.5982 81.7533C53.3334 81.7533 53.93 82.3499 53.93 83.0852C53.93 83.8204 53.3334 84.417 52.5982 84.417ZM79.9219 86.4177C79.1866 86.4177 78.59 85.8211 78.59 85.0859C78.59 84.3507 79.1866 83.7541 79.9219 83.7541C80.6571 83.7541 81.2537 84.3507 81.2537 85.0859C81.2537 85.8211 80.6571 86.4177 79.9219 86.4177Z" fill="#F09A9A"/>
<path d="M107 89.8106C105.638 89.7383 104.282 89.6539 102.92 89.5756C103.01 89.8829 103.101 90.2083 103.209 90.5639C104.722 90.2626 105.481 90.1119 107 89.8106Z" fill="#E03232"/>
<path d="M84.5735 92.9624C84.5856 92.7454 84.6036 92.5225 84.6157 92.2995C85.1882 81.5183 80.4936 66.9223 70.4597 66.1028C60.4318 65.2832 54.1041 78.9872 53.4412 89.7563C53.4291 89.9793 53.4291 90.1119 53.4171 90.3349C53.2905 90.3048 53.2242 90.2927 53.0977 90.2626C53.1097 90.0456 53.1157 89.9492 53.1338 89.7262C53.8148 78.8606 60.1184 64.7649 70.4898 65.6086C80.8612 66.4523 85.5076 81.4339 84.9291 92.3236C84.917 92.5466 84.8989 92.7635 84.8869 92.9805C84.7603 92.9805 84.7001 92.9744 84.5735 92.9624Z" stroke="#F3D0D0" stroke-width="1.5076" stroke-miterlimit="10"/>
<path opacity="0.2" d="M71.3037 87.5868L67.1997 87.2614L49.916 174.855L56.0268 175.247L71.3037 87.5868Z" fill="#E77575"/>
<path d="M80.1094 81.711C78.3859 81.8497 77.5241 81.922 75.8066 82.0606C75.0352 79.1318 74.6495 77.6674 73.8841 74.7385C67.466 110.156 60.843 145.537 54.0332 180.887C57.1308 185.148 58.6916 187.269 61.8193 191.518C68.0868 154.944 74.1915 118.339 80.1094 81.711Z" fill="#68578C"/>
<path d="M141.312 84.0553C141.325 83.8082 141.337 83.5611 141.343 83.3141C141.68 71.2553 136.359 54.9961 125.415 54.4296C114.465 53.8631 108.065 69.4895 107.613 81.5604C107.601 81.8135 107.613 81.7834 107.607 82.0365C107.474 82.0304 107.408 82.0244 107.275 82.0124C107.281 81.7653 107.275 81.7894 107.281 81.5423C107.764 69.2545 114.266 53.2966 125.433 53.8752C136.6 54.4537 142.036 71.0202 141.68 83.3321C141.674 83.5853 141.662 83.8263 141.65 84.0734C141.511 84.0613 141.445 84.0613 141.312 84.0553Z" stroke="#483864" stroke-width="1.9245" stroke-miterlimit="10"/>
<path d="M73.9141 74.7506C74.5107 77.8723 74.812 79.4331 75.4146 82.5548C77.3009 82.2595 78.241 82.1149 80.1273 81.8135C110.024 83.736 139.939 85.0557 169.884 85.7849C169.149 83.513 168.673 82.0305 167.841 79.4391C136.492 78.5231 105.191 76.9623 73.9141 74.7506ZM107.059 82.0847C105.902 82.0847 104.962 81.1446 104.962 79.9936C104.962 78.8365 105.902 77.8964 107.059 77.8964C108.216 77.8964 109.15 78.8365 109.15 79.9936C109.15 81.1506 108.21 82.0847 107.059 82.0847ZM141.428 83.3262C140.271 83.3262 139.331 82.386 139.331 81.229C139.331 80.0719 140.265 79.1318 141.428 79.1318C142.585 79.1318 143.519 80.0719 143.519 81.229C143.519 82.386 142.579 83.3262 141.428 83.3262Z" fill="#483864"/>
<path d="M174.953 85.9056C173.266 85.8695 171.572 85.8212 169.885 85.7791C170.011 86.1587 170.138 86.5625 170.283 87.0024C172.145 86.5685 173.085 86.3516 174.953 85.9056Z" fill="#BA8E67"/>
<path d="M175.08 85.6161C143.351 85.0075 111.658 83.7359 79.9834 81.7894C74.0896 118.412 68.015 154.998 61.7656 191.56C102.787 194.284 143.833 195.923 184.939 196.484C181.468 159.548 178.183 122.594 175.08 85.6161ZM107.723 89.6056C106.355 89.6056 105.246 88.4967 105.246 87.1348C105.246 85.7668 106.355 84.6579 107.723 84.6579C109.091 84.6579 110.2 85.7668 110.2 87.1348C110.2 88.4967 109.091 89.6056 107.723 89.6056ZM147.232 91.4195C145.864 91.4195 144.755 90.3107 144.755 88.9427C144.755 87.5747 145.864 86.4659 147.232 86.4659C148.6 86.4659 149.709 87.5747 149.709 88.9427C149.709 90.3107 148.6 91.4195 147.232 91.4195Z" fill="#7C6E99"/>
<path d="M147.097 91.6847C147.11 91.4015 147.122 91.1183 147.134 90.835C147.483 77.2515 141.559 58.3949 128.813 57.7682C116.068 57.1415 108.926 75.3472 108.402 88.9307C108.39 89.2139 108.396 89.3947 108.39 89.6779C108.233 89.6478 108.149 89.6297 107.992 89.5996C107.998 89.3164 108.01 89.1958 108.022 88.9126C108.565 75.076 115.839 56.4966 128.837 57.1354C141.836 57.7742 147.887 76.9924 147.519 90.8591C147.513 91.1424 147.495 91.4256 147.489 91.7089C147.326 91.6968 147.248 91.6908 147.097 91.6847Z" stroke="#7C6E99" stroke-width="1.911" stroke-miterlimit="10"/>
<path opacity="0.2" d="M125.813 84.2783L116.292 83.7058L97.0254 193.633L111.151 194.145L125.813 84.2783Z" fill="#576A7D"/>
<path d="M273.585 84.0553C273.573 83.8082 273.561 83.5611 273.555 83.3141C273.218 71.2553 278.539 54.9961 289.483 54.4296C300.427 53.8631 306.833 69.4895 307.285 81.5604C307.297 81.8135 307.285 81.7834 307.291 82.0365C307.423 82.0304 307.49 82.0244 307.622 82.0124C307.616 81.7653 307.622 81.7894 307.616 81.5423C307.14 69.2545 300.632 53.2966 289.465 53.8752C278.298 54.4537 272.862 71.0202 273.218 83.3321C273.224 83.5853 273.236 83.8263 273.248 84.0734C273.386 84.0613 273.453 84.0613 273.585 84.0553Z" stroke="#5B6F83" stroke-width="1.9245" stroke-miterlimit="10"/>
<path d="M247.064 79.4391C246.233 82.0305 245.751 83.513 245.021 85.7849C274.967 85.0557 304.882 83.736 334.779 81.8135C336.665 82.1149 337.605 82.2595 339.491 82.5548C340.094 79.4331 340.395 77.8723 340.992 74.7506C309.709 76.9623 278.408 78.5231 247.064 79.4391ZM305.749 79.9936C305.749 78.8365 306.69 77.8964 307.847 77.8964C309.004 77.8964 309.938 78.8365 309.938 79.9936C309.938 81.1506 309.004 82.0847 307.847 82.0847C306.69 82.0847 305.749 81.1506 305.749 79.9936ZM271.381 81.229C271.381 80.0719 272.321 79.1318 273.478 79.1318C274.635 79.1318 275.569 80.0719 275.569 81.229C275.569 82.386 274.629 83.3262 273.478 83.3262C272.321 83.3262 271.381 82.386 271.381 81.229Z" fill="#3B4855"/>
<path d="M239.953 85.9055C241.641 85.8693 243.334 85.8211 245.021 85.7789C244.895 86.1586 244.768 86.5624 244.624 87.0023C242.755 86.5684 241.821 86.3515 239.953 85.9055Z" fill="#BA8E67"/>
<path d="M229.961 196.484C271.067 195.923 312.119 194.284 353.134 191.56C346.891 154.998 340.81 118.412 334.917 81.7894C303.242 83.7419 271.549 85.0075 239.82 85.6161C236.717 122.594 233.432 159.548 229.961 196.484ZM304.7 87.1348C304.7 85.7668 305.809 84.6579 307.177 84.6579C308.545 84.6579 309.654 85.7668 309.654 87.1348C309.654 88.5028 308.545 89.6056 307.177 89.6056C305.809 89.6056 304.7 88.4967 304.7 87.1348ZM265.191 88.9427C265.191 87.5747 266.3 86.4659 267.668 86.4659C269.036 86.4659 270.145 87.5747 270.145 88.9427C270.145 90.3107 269.036 91.4195 267.668 91.4195C266.3 91.4195 265.191 90.3107 265.191 88.9427Z" fill="#7F859C"/>
<path d="M267.801 91.6847C267.789 91.4015 267.777 91.1183 267.765 90.835C267.415 77.2515 273.339 58.3949 286.085 57.7682C298.837 57.1415 305.972 75.3472 306.496 88.9307C306.508 89.2139 306.496 89.3947 306.508 89.6779C306.665 89.6478 306.75 89.6297 306.906 89.5996C306.9 89.3164 306.888 89.1958 306.876 88.9126C306.334 75.076 299.06 56.4966 286.061 57.1354C273.062 57.7742 267.011 76.9924 267.379 90.8591C267.385 91.1424 267.403 91.4256 267.409 91.7089C267.572 91.6968 267.65 91.6908 267.801 91.6847Z" stroke="#7F859C" stroke-width="1.911" stroke-miterlimit="10"/>
<path opacity="0.2" d="M289.086 84.2783L298.608 83.7058L317.79 193.537L303.748 194.145L289.086 84.2783Z" fill="#5B6F83"/>
<path d="M334.789 81.711C336.513 81.8497 337.374 81.922 339.092 82.0606C339.863 79.1318 340.249 77.6674 341.014 74.7385C347.438 110.156 354.055 145.537 360.865 180.887C357.768 185.148 356.213 187.269 353.079 191.518C346.812 154.944 340.707 118.339 334.789 81.711Z" fill="#5B6F83"/>
<path d="M135.618 68.8508C136.058 67.6877 136.594 65.4339 137.179 62.6437C136.371 62.6195 135.57 62.5894 134.762 62.5653C137.564 63.3909 132.81 68.0373 135.618 68.8508Z" fill="#FAB3B3"/>
<path d="M142.314 38.2247C141.037 41.6356 138.903 54.4538 137.18 62.6436C184.415 64.1141 230.281 67.3322 277.571 65.9943C280.415 66.5548 279.535 48.5358 282.38 49.0903C283.458 44.3234 284.001 41.943 285.067 37.1761C237.489 38.9057 189.911 39.2552 142.314 38.2247ZM182.462 45.7215C181.04 45.7215 179.889 44.5705 179.889 43.1482C179.889 41.726 181.04 40.575 182.462 40.575C183.878 40.575 185.035 41.726 185.035 43.1482C185.029 44.5705 183.878 45.7215 182.462 45.7215ZM234.729 45.7215C233.307 45.7215 232.156 44.5705 232.156 43.1482C232.156 41.726 233.307 40.575 234.729 40.575C236.145 40.575 237.302 41.726 237.302 43.1482C237.296 44.5705 236.145 45.7215 234.729 45.7215Z" fill="#FAB3B3"/>
<path d="M182.643 45.7878C182.643 45.4142 182.637 45.0526 182.637 44.6729C182.811 27.0457 191.399 2.80155 208.315 2.83771C225.231 2.87387 233.765 27.1301 233.885 44.7754C233.891 45.149 233.879 45.1129 233.873 45.4805C234.078 45.4805 234.174 45.4745 234.379 45.4745C234.379 45.1008 234.391 45.143 234.391 44.7633C234.253 26.7866 225.569 2.0362 208.321 2.00004C191.074 1.96388 182.305 26.6721 182.136 44.6609C182.13 45.0345 182.142 45.4021 182.142 45.7758C182.335 45.7818 182.438 45.7818 182.643 45.7878Z" stroke="#F3D0D0" stroke-width="2.9186" stroke-miterlimit="10"/>
<path d="M275.485 47.6741C227.255 48.9095 179.05 48.7347 130.833 47.1437C123.174 103.677 115.122 160.151 106.691 216.57C170.312 219.143 233.933 219.408 297.571 217.329C289.846 160.826 282.469 104.274 275.485 47.6741ZM173.036 56.569C171.3 56.569 169.896 55.1649 169.896 53.4293C169.896 51.6937 171.3 50.2895 173.036 50.2895C174.772 50.2895 176.176 51.6997 176.176 53.4293C176.176 55.1649 174.766 56.569 173.036 56.569ZM232.824 56.569C231.088 56.569 229.684 55.1649 229.684 53.4293C229.684 51.6937 231.094 50.2895 232.824 50.2895C234.559 50.2895 235.964 51.6997 235.964 53.4293C235.964 55.1649 234.559 56.569 232.824 56.569Z" fill="#ECDEDE"/>
<path d="M231.384 56.2737C231.812 56.4485 232.276 56.5509 232.77 56.5509C233.102 56.5509 233.415 56.4907 233.722 56.4123C233.722 56.3701 233.722 56.334 233.722 56.2918L233.716 55.9061C233.638 44.7091 230.8 32.5418 226.123 23.3636C220.332 11.9918 212.329 5.95332 202.97 5.91113H202.867C193.538 5.91113 185.517 11.8833 179.666 23.1888C174.941 32.3248 172.036 44.4439 171.885 55.6168C171.879 55.876 171.885 56.1351 171.885 56.3942C172.217 56.4967 172.566 56.563 172.934 56.563C173.386 56.563 173.814 56.4786 174.218 56.334C174.218 56.111 174.218 55.888 174.218 55.659C174.471 36.6879 183.751 8.61699 202.861 8.61699H202.952C222.14 8.70738 231.258 36.9049 231.384 55.9302C231.39 56.0507 231.39 56.1652 231.384 56.2737Z" fill="#ECDEDE"/>
<path d="M275.293 47.5415C277.902 47.8548 279.204 48.0115 281.814 48.3189C283.145 43.8593 283.802 41.6296 285.122 37.17C293.023 91.95 301.357 146.664 310.083 201.311C305.907 206.644 301.779 211.99 297.56 217.287C289.78 160.765 282.326 104.159 275.293 47.5415Z" fill="#FAC7C7"/>
</g>
</svg>
