<svg width="130" height="25" viewBox="0 0 130 25" fill="none" xmlns="http://www.w3.org/2000/svg">
<path d="M0 11.8671C0 10.0701 1.49649 8.97377 1.49649 8.97377L13.16 0V10.1266H19.0088V24.5931H1.75923C0.0342708 24.5931 0 22.8526 0 22.8526V11.8671Z" fill="#FFCC00"/>
<path d="M9.07159 9.1207C9.89409 8.77034 10.5338 9.1207 10.5338 9.93445C10.5338 10.7482 9.89409 11.675 9.07159 12.0479C8.2491 12.3983 7.60938 12.0479 7.60938 11.2342C7.60937 10.3865 8.2491 9.45976 9.07159 9.1207Z" fill="black"/>
<path opacity="0.149" d="M13.1713 10.1266H16.0958V18.8065L2.3418 23.1465L13.1599 15.9132V10.1266H13.1713Z" fill="black"/>
<path d="M31.7349 15.8341L28.8676 22.2197H26.7656L29.9185 15.382C29.176 15.0091 28.582 14.4666 28.125 13.7433C27.6681 13.0199 27.4396 12.0367 27.4396 10.7934C27.4396 9.92318 27.5653 9.15465 27.828 8.49913C28.0908 7.84362 28.4449 7.28982 28.8904 6.86035C29.3359 6.43087 29.8614 6.10311 30.4554 5.87707C31.0495 5.66234 31.6778 5.54932 32.3403 5.54932H35.0477V22.2197H33.2314V15.8341H31.7349ZM33.2428 7.04118H32.2718C31.9062 7.04118 31.5521 7.10899 31.2094 7.24461C30.8667 7.38024 30.5582 7.58367 30.2955 7.87752C30.0328 8.17138 29.8157 8.54434 29.6444 9.01902C29.4844 9.49371 29.393 10.0814 29.393 10.7821C29.393 11.449 29.473 12.014 29.6215 12.4661C29.77 12.9182 29.9756 13.2799 30.2384 13.5624C30.5011 13.845 30.8096 14.0371 31.1523 14.1614C31.5064 14.2744 31.8834 14.3423 32.2718 14.3423H33.2428V7.04118Z" fill="black"/>
<path d="M43.8096 10.4656V22.2197H41.9933V16.9529H39.263V22.2197H37.4238V10.4656H39.263V15.4611H41.9933V10.4656H43.8096ZM53.2569 24.5253H51.6119V22.2197H46.517V24.5253H44.872V20.7278H45.6031C45.8658 20.1062 46.0829 19.4168 46.2428 18.6595C46.4028 17.9023 46.517 17.1338 46.6084 16.3313C46.6998 15.5289 46.7455 14.7151 46.7683 13.8788C46.7912 13.0425 46.8026 12.24 46.8026 11.4602V10.4656H52.3202V20.7278H53.2683V24.5253H53.2569ZM50.5038 11.9575H48.4476V12.1722C48.4476 12.7938 48.4362 13.4719 48.4133 14.2066C48.3905 14.9412 48.3333 15.6871 48.2648 16.4557C48.1848 17.2129 48.0706 17.9588 47.9335 18.7047C47.7964 19.4394 47.5908 20.1175 47.3395 20.7391H50.5038V11.9575ZM61.242 21.4285C60.865 21.7224 60.4309 21.9597 59.9511 22.1292C59.4599 22.2988 58.923 22.3892 58.329 22.3892C57.1066 22.3892 56.1356 21.9145 55.4274 20.9764C54.7191 20.0384 54.365 18.6595 54.365 16.8399C54.365 15.8906 54.4335 15.0203 54.5706 14.2292C54.7077 13.438 54.9133 12.7486 55.2103 12.1609C55.4959 11.5732 55.8729 11.1211 56.3298 10.7934C56.7868 10.4656 57.3237 10.3074 57.952 10.3074C58.4432 10.3074 58.8887 10.4091 59.3 10.6012C59.7112 10.7934 60.0539 11.1098 60.3395 11.5506C60.6251 11.9914 60.8421 12.5452 61.0021 13.2459C61.162 13.9353 61.242 14.783 61.242 15.7775V16.7834H56.2956C56.2956 18.117 56.4783 19.1342 56.8439 19.8123C57.2095 20.5018 57.7692 20.8408 58.5003 20.8408C59.0144 20.8408 59.4827 20.7504 59.8826 20.5696C60.2824 20.3887 60.6023 20.2192 60.8421 20.0497L61.242 21.4285ZM57.952 11.7992C57.3808 11.7992 56.981 12.1157 56.7525 12.7486C56.524 13.3815 56.3641 14.2179 56.307 15.2802H59.3457C59.3457 14.783 59.3228 14.3196 59.2771 13.8901C59.2314 13.4606 59.1515 13.099 59.0486 12.7825C58.9458 12.4661 58.8087 12.2287 58.626 12.0592C58.4318 11.8897 58.2147 11.7992 57.952 11.7992ZM64.9432 16.3652V22.2197H63.104V10.4656H64.9432V15.9019L67.7991 10.4656H69.6611L66.7139 15.9923L70.0838 22.2197H68.0847L64.9432 16.3652ZM74.4019 22.3892C73.1339 22.3892 72.1286 21.8919 71.4089 20.886C70.6893 19.8802 70.3237 18.377 70.3237 16.3539C70.3237 15.4385 70.4151 14.6021 70.5979 13.8562C70.7807 13.1103 71.0434 12.4774 71.3975 11.9575C71.7517 11.4376 72.1858 11.0307 72.7227 10.7481C73.2481 10.4656 73.8536 10.3187 74.5504 10.3187C75.0873 10.3187 75.5214 10.3752 75.8413 10.4882C76.1612 10.6012 76.4696 10.7481 76.7323 10.9177L76.4696 12.6469C76.2183 12.4208 75.9213 12.2287 75.59 12.0592C75.2473 11.8897 74.8931 11.8105 74.5162 11.8105C73.8536 11.8105 73.3167 12.1722 72.894 12.9068C72.4713 13.6415 72.2543 14.7604 72.2543 16.2635C72.2543 17.7441 72.4256 18.8969 72.7798 19.6993C73.1339 20.5018 73.6822 20.9086 74.4362 20.9086C74.8931 20.9086 75.2815 20.8295 75.6128 20.6826C75.9441 20.5357 76.2183 20.3548 76.4353 20.1627L76.858 21.5189C76.5381 21.7789 76.1954 21.9936 75.7956 22.1632C75.4186 22.2988 74.9503 22.3892 74.4019 22.3892Z" fill="black"/>
<path d="M89.3658 22.2197H82.1461L81.9862 25H81.0723V21.293H81.5635C81.9747 20.9539 82.2832 20.3436 82.5116 19.4734C82.7287 18.6031 82.9 17.5633 83.0257 16.3653C83.1514 15.1221 83.2427 13.585 83.2884 11.7767C83.3341 9.96839 83.3798 7.88883 83.4027 5.54932H89.2972V21.293H90.451V25H89.5371L89.3658 22.2197ZM88.1092 6.48738H84.4536C84.4194 8.62346 84.3737 10.4996 84.3166 12.1158C84.248 13.732 84.1795 15.1447 84.0767 16.3653C83.9624 17.6311 83.8139 18.6709 83.6197 19.4847C83.4255 20.2984 83.1628 20.9087 82.8543 21.293H88.1092V6.48738Z" fill="black"/>
<path d="M92.7147 16.5348C92.749 18.1622 92.9775 19.3942 93.4001 20.2531C93.8228 21.1008 94.474 21.5302 95.3307 21.5302C95.7191 21.5302 96.0733 21.4624 96.3703 21.3381C96.6673 21.2138 96.9186 21.0555 97.1242 20.886C97.3641 20.7165 97.5583 20.5017 97.7411 20.2418L98.0952 21.1234C97.901 21.3833 97.684 21.6093 97.4098 21.8015C97.1699 21.971 96.8843 22.1292 96.5416 22.2536C96.1989 22.3892 95.7877 22.457 95.3193 22.457C94.0627 22.457 93.1374 21.9258 92.5434 20.8521C91.9494 19.7784 91.6523 18.2753 91.6523 16.3539C91.6523 15.3933 91.7437 14.5343 91.9151 13.7771C92.0864 13.0198 92.3263 12.3869 92.6348 11.8557C92.9432 11.3245 93.3088 10.929 93.7314 10.6577C94.1541 10.3865 94.6225 10.2509 95.1251 10.2509C95.6392 10.2509 96.1075 10.3865 96.5188 10.6464C96.93 10.9064 97.2613 11.3019 97.5355 11.8331C97.7982 12.3643 97.9924 13.0198 98.1067 13.7997C98.2209 14.5795 98.2209 15.495 98.1295 16.5348H92.7147ZM95.0908 11.1663C94.4625 11.1663 93.9256 11.5506 93.4801 12.3191C93.0346 13.0877 92.7833 14.2065 92.7376 15.6758H97.0557C97.1471 14.1161 96.9986 12.9746 96.5987 12.2513C96.1875 11.528 95.6849 11.1663 95.0908 11.1663Z" fill="black"/>
<path d="M105.337 16.6026H101.282V22.2197H100.174V10.4656H101.282V15.6645H105.337V10.4656H106.445V22.2197H105.337V16.6026Z" fill="black"/>
<path d="M109.061 10.4656H110.169V14.8282H111.037C112.168 14.8282 113.07 15.1334 113.744 15.7324C114.418 16.3427 114.761 17.2581 114.761 18.4787C114.761 19.722 114.407 20.66 113.699 21.2816C112.99 21.9032 112.076 22.2197 110.968 22.2197H109.061V10.4656ZM110.169 15.6872V21.3494H110.877C111.711 21.3494 112.385 21.1234 112.899 20.6826C113.413 20.2419 113.676 19.5185 113.676 18.5013C113.676 17.5068 113.436 16.7834 112.967 16.3427C112.499 15.9019 111.836 15.6759 110.991 15.6759H110.169V15.6872Z" fill="black"/>
<path d="M117.765 11.4037V22.2197H116.68V10.4656H121.695V11.4037H117.765Z" fill="black"/>
<path d="M128.938 14.0371C128.938 13.7206 128.949 13.4381 128.961 13.1894C128.972 12.9295 128.995 12.6808 129.029 12.4322H128.961C128.881 12.6921 128.789 12.9521 128.675 13.1894C128.561 13.4268 128.447 13.6867 128.321 13.9466L124.46 22.2197H123.512V10.4656H124.551V18.6257C124.551 18.9421 124.54 19.2247 124.528 19.4846C124.517 19.7446 124.494 20.0158 124.46 20.2758H124.528C124.608 20.0158 124.7 19.7559 124.814 19.4959C124.928 19.236 125.042 18.976 125.168 18.7161L129.029 10.4656H130V22.2197H128.938V14.0371Z" fill="black"/>
</svg>
