<svg xmlns="http://www.w3.org/2000/svg" viewBox="0 0 103.5 18">
<g opacity="0.6">
	<path fill="#fff" d="M45,12V8.3c0-1.4-0.9-2.4-2.4-2.4c-0.4,0-0.8,0.1-1.2,0.2C41,6.3,40.7,6.6,40.5,7c-0.2-0.3-0.5-0.6-0.8-0.8c-0.4-0.2-0.7-0.3-1.1-0.3c-0.3,0-0.7,0.1-1,0.2c-0.3,0.2-0.6,0.4-0.8,0.7V6h-1.3v6h1.3V8.7c0-1,0.6-1.6,1.5-1.6c0.9,0,1.3,0.6,1.3,1.6V12h1.3V8.7c0-1,0.6-1.6,1.5-1.6s1.3,0.6,1.3,1.6V12H45z M64.6,6h-2.1V4.2h-1.3V6h-1.2v1.2h1.2V10c0,1.4,0.5,2.2,2.1,2.2c0.6,0,1.1-0.2,1.6-0.5l-0.4-1.1c-0.4,0.2-0.8,0.3-1.2,0.3c-0.7,0-0.9-0.4-0.9-1V7.2h2.1L64.6,6z M75.8,5.9c-0.3,0-0.6,0.1-0.9,0.2c-0.3,0.2-0.5,0.4-0.7,0.7V6h-1.3v6h1.3V8.7c0-1,0.4-1.5,1.3-1.5c0.3,0,0.6,0,0.8,0.1l0.4-1.2C76.4,5.9,76.1,5.9,75.8,5.9z M58.9,6.5c-0.7-0.4-1.6-0.7-2.5-0.6c-1.5,0-2.5,0.7-2.5,1.9c0,1,0.7,1.6,2.1,1.8l0.6,0.1c0.7,0.1,1.1,0.3,1.1,0.6c0,0.5-0.5,0.7-1.4,0.7c-0.7,0-1.4-0.2-2-0.6l-0.6,1c0.8,0.5,1.7,0.8,2.6,0.8c1.7,0,2.8-0.8,2.8-2c0-1.1-0.8-1.6-2.1-1.8l-0.6-0.1c-0.6-0.1-1-0.2-1-0.6c0-0.4,0.4-0.7,1.1-0.7c0.7,0,1.3,0.2,1.9,0.5L58.9,6.5z M94,5.9c-0.3,0-0.6,0.1-0.9,0.2c-0.3,0.2-0.5,0.4-0.7,0.7V6h-1.3v6h1.3V8.7c0-1,0.4-1.5,1.3-1.5c0.3,0,0.6,0,0.8,0.1L95,6.1C94.7,5.9,94.4,5.9,94,5.9z M77.1,9c0,1.8,1.3,3.1,3.2,3.1c0.8,0,1.6-0.2,2.2-0.7l-0.6-1.1c-0.5,0.3-1,0.5-1.6,0.5c-1,0-1.8-0.8-1.8-1.9s0.8-1.9,1.8-1.9c0.6,0,1.1,0.2,1.6,0.5l0.6-1.1c-0.6-0.5-1.4-0.8-2.2-0.7C78.4,5.9,77.1,7.2,77.1,9L77.1,9z M89.4,9V6h-1.3v0.7c-0.2-0.3-0.5-0.5-0.8-0.7c-0.3-0.2-0.7-0.2-1.1-0.2c-1.7,0-3,1.3-3,3.1s1.3,3.1,3,3.1c0.4,0,0.7-0.1,1.1-0.2c0.3-0.2,0.6-0.4,0.8-0.7V12h1.3V9z M84.5,9c0-1.1,0.7-1.9,1.8-1.9c1.1,0,1.8,0.8,1.8,1.9c0,1.1-0.7,1.9-1.8,1.9C85.2,11,84.5,10.1,84.5,9z M68.7,5.9c-1.8,0-3,1.3-3,3.1c0,1.9,1.3,3.1,3.1,3.1c0.9,0,1.8-0.3,2.5-0.8l-0.6-1c-0.5,0.4-1.1,0.6-1.8,0.6c-0.8,0-1.6-0.4-1.8-1.5h4.5c0-0.2,0-0.3,0-0.5C71.5,7.2,70.4,5.9,68.7,5.9L68.7,5.9z M68.7,7.1c0.8,0,1.4,0.5,1.5,1.5h-3.1C67.2,7.6,67.7,7.1,68.7,7.1L68.7,7.1z M101.6,9V3.6h-1.3v3.1c-0.2-0.3-0.5-0.5-0.8-0.7c-0.3-0.2-0.7-0.2-1.1-0.2c-1.7,0-3,1.3-3,3.1c0,1.8,1.3,3.1,3,3.1c0.4,0,0.7-0.1,1.1-0.2c0.3-0.2,0.6-0.4,0.8-0.7V12h1.3V9z M103.1,11.5c0.1,0,0.1,0,0.2,0c0,0,0.1,0,0.1,0.1c0,0,0.1,0.1,0.1,0.1c0,0,0,0.1,0,0.1c0,0.1,0,0.1,0,0.1c0,0,0,0.1-0.1,0.1c0,0-0.1,0.1-0.1,0.1c0,0-0.1,0-0.2,0c-0.1,0-0.2,0-0.2-0.1c-0.1,0-0.1-0.1-0.1-0.2c0,0,0-0.1,0-0.1c0-0.1,0-0.1,0-0.1c0-0.1,0.1-0.2,0.2-0.2C103,11.5,103.1,11.5,103.1,11.5L103.1,11.5z M103.1,12.1c0,0,0.1,0,0.1,0c0,0,0.1,0,0.1-0.1c0.1-0.1,0.1-0.1,0.1-0.2s0-0.2-0.1-0.2c0,0-0.1,0-0.1-0.1c0,0-0.1,0-0.1,0c0,0-0.1,0-0.1,0c0,0-0.1,0-0.1,0.1c0,0-0.1,0.1-0.1,0.1c0,0,0,0.1,0,0.1c0,0,0,0.1,0.1,0.1c0,0,0.1,0,0.1,0.1C103.1,12.1,103.1,12.2,103.1,12.1L103.1,12.1z M103.2,11.7c0,0,0.1,0,0.1,0c0,0,0,0,0,0c0,0,0,0,0,0c0,0,0,0,0,0c0,0,0,0,0,0c0,0-0.1,0-0.1,0l0.1,0.1h-0.1l-0.1-0.1h0V12H103v-0.3L103.2,11.7z M103.1,11.7L103.1,11.7L103.1,11.7c0.1,0.1,0.1,0.1,0.1,0.1c0,0,0,0,0,0c0,0,0,0,0,0c0,0,0,0,0,0c0,0,0,0,0,0C103.2,11.8,103.2,11.8,103.1,11.7L103.1,11.7z M96.7,9c0-1.1,0.7-1.9,1.8-1.9c1.1,0,1.8,0.8,1.8,1.9c0,1.1-0.7,1.9-1.8,1.9C97.4,11,96.7,10.1,96.7,9z M52.4,9V6h-1.3v0.7c-0.2-0.3-0.5-0.5-0.8-0.7c-0.3-0.2-0.7-0.2-1.1-0.2c-1.7,0-3,1.3-3,3.1c0,1.8,1.3,3.1,3,3.1c0.4,0,0.7-0.1,1.1-0.2c0.3-0.2,0.6-0.4,0.8-0.7V12h1.3L52.4,9z M47.5,9c0-1.1,0.7-1.9,1.8-1.9c1.1,0,1.8,0.8,1.8,1.9c0,1.1-0.7,1.9-1.8,1.9C48.2,11,47.5,10.1,47.5,9z"/>
	<path fill="#DCDCDC" d="M18.7,1.9h-7.9v14.1h7.9V1.9z"/>
	<path fill="#C6C6C6" d="M11.2,9c0-1.4,0.3-2.7,0.9-3.9c0.6-1.2,1.5-2.3,2.6-3.1c-1.3-1-2.9-1.7-4.6-1.9C8.3-0.1,6.6,0.2,5.1,0.9C3.6,1.6,2.3,2.8,1.4,4.2C0.5,5.7,0,7.3,0,9c0,1.7,0.5,3.3,1.4,4.8c0.9,1.4,2.2,2.6,3.7,3.3c1.5,0.7,3.2,1,4.9,0.9c1.7-0.2,3.3-0.8,4.6-1.9c-1.1-0.8-2-1.9-2.6-3.1C11.5,11.7,11.2,10.4,11.2,9z"/>
	<path fill="#fff" d="M29.4,9c0,1.7-0.5,3.3-1.4,4.8c-0.9,1.4-2.2,2.6-3.7,3.3c-1.5,0.7-3.2,1-4.9,0.9c-1.7-0.2-3.3-0.8-4.6-1.9c1.1-0.8,2-1.9,2.6-3.1c0.6-1.2,0.9-2.6,0.9-3.9c0-1.4-0.3-2.7-0.9-3.9s-1.5-2.3-2.6-3.1c1.3-1,2.9-1.7,4.6-1.9c1.7-0.2,3.4,0.1,4.9,0.9c1.5,0.7,2.8,1.9,3.7,3.3C28.9,5.7,29.4,7.3,29.4,9z"/>
</g>
</svg>
