<svg xmlns="http://www.w3.org/2000/svg" viewBox="0 0 47.8 14.7">
	<g opacity="0.6" fill="#ffffff">
		<path d="M19.2,0.2l-2.4,14.3h3.9L23,0.2H19.2z"/>
		<path d="M13.5,0.3L9.7,10L9.2,8.5C8.5,6.8,6.4,4.2,3.9,2.6l3.5,11.9l4.1,0l6.1-14.2L13.5,0.3z"/>
		<path d="M7.8,1.3C7.5,0.4,6.9,0.2,6.1,0.1h-6L0,0.4c4.7,1.1,7.8,3.9,9.1,7.2L7.8,1.3z"/>
		<path d="M30.9,3c1.3,0,2.2,0.3,2.9,0.5l0.4,0.2l0.5-3.1c-0.8-0.3-2-0.6-3.5-0.6c-3.8,0-6.5,1.9-6.6,4.7c0,2,1.9,3.2,3.4,3.9c1.5,0.7,2,1.1,2,1.8c0,1-1.2,1.4-2.3,1.4c-1.6,0-2.4-0.2-3.7-0.7l-0.5-0.2L23,14c0.9,0.4,2.6,0.7,4.3,0.8c4.1,0,6.7-1.9,6.8-4.9c0-1.6-1-2.9-3.3-3.9c-1.4-0.7-2.2-1.1-2.2-1.8C28.7,3.6,29.4,3,30.9,3z"/>
		<path d="M44.7,0.3h-3c-0.9,0-1.6,0.3-2,1.2l-5.8,13.1H38c0,0,0.7-1.8,0.8-2.1c0.4,0,4.4,0,5,0c0.1,0.5,0.5,2.1,0.5,2.1h3.6L44.7,0.3z M39.9,9.5c0.3-0.8,1.5-4,1.5-4c0,0,0.3-0.8,0.5-1.4l0.3,1.2c0,0,0.7,3.4,0.9,4.1H39.9z"/>
	</g>
</svg>
