<svg width="89" height="120" viewBox="0 0 89 120" fill="none" xmlns="http://www.w3.org/2000/svg">
<path d="M86.2418 120H4.24686C3.22517 120 2.38379 119.157 2.38379 118.134V16.1083C2.38379 15.0852 3.22517 14.2427 4.24686 14.2427H86.2218C87.2434 14.2427 88.0848 15.0852 88.0848 16.1083V118.134C88.0848 119.157 87.2635 120 86.2418 120Z" fill="#E0E0E0"/>
<path d="M83.858 117.372H1.86307C0.841385 117.372 0 116.53 0 115.507L0 13.4806C0 12.4575 0.841385 11.615 1.86307 11.615H83.838C84.8597 11.615 85.701 12.4575 85.701 13.4806V115.507C85.701 116.53 84.8797 117.372 83.858 117.372Z" fill="#ECDEDE"/>
<path d="M83.4975 11.6348H42.8506V117.372H83.4975C84.7195 117.372 85.7011 116.389 85.7011 115.165V13.8414C85.7011 12.6177 84.7195 11.6348 83.4975 11.6348Z" fill="#E1D3D3"/>
<path d="M78.4095 16.7905H7.3125V109.97H78.4095V16.7905Z" fill="#F6F3EB"/>
<path opacity="0.3" d="M78.3891 16.7905H42.8506V109.97H78.3891V16.7905Z" fill="#E2DDD5"/>
<path d="M33.7355 37.5732H32.7539V37.8541H33.7355V37.5732Z" fill="#989898"/>
<path d="M69.6547 37.8534V37.5725V37.8534ZM67.7716 37.8534V37.5725V37.8534ZM67.7716 37.8534H65.8885V37.5725H67.7716V37.8534ZM65.8684 37.8534V37.5725V37.8534ZM63.9853 37.8534V37.5725V37.8534ZM63.9853 37.8534H62.1022V37.5725H63.9853V37.8534ZM62.1022 37.8534V37.5725V37.8534ZM60.1991 37.8534V37.5725V37.8534ZM60.1991 37.8534H58.316V37.5725H60.1991V37.8534ZM58.316 37.8534V37.5725V37.8534ZM56.4329 37.8534V37.5725V37.8534ZM56.4129 37.8534H54.5298V37.5725H56.4129V37.8534ZM54.5298 37.8534V37.5725V37.8534ZM52.6467 37.8534V37.5725V37.8534ZM52.6467 37.8534H50.7636V37.5725H52.6467V37.8534ZM50.7435 37.8534V37.5725V37.8534ZM48.8604 37.8534V37.5725V37.8534ZM48.8604 37.8534H46.9773V37.5725H48.8604V37.8534ZM46.9773 37.8534V37.5725V37.8534ZM45.0742 37.8534V37.5725V37.8534ZM45.0742 37.8534H43.1911V37.5725H45.0742V37.8534ZM43.1911 37.8534V37.5725V37.8534ZM41.308 37.8534V37.5725V37.8534ZM41.308 37.8534H39.4249V37.5725H41.308V37.8534ZM39.4049 37.8534V37.5725V37.8534ZM37.5218 37.8534V37.5725V37.8534ZM37.5218 37.8534H35.6387V37.5725H37.5218V37.8534Z" fill="#989898"/>
<path d="M70.6359 37.5725H69.6543V37.8534H70.6359V37.5725Z" fill="#989898"/>
<path d="M33.7355 59.5989H32.7539V59.8797H33.7355V59.5989Z" fill="#989898"/>
<path d="M69.6547 59.8795V59.5986V59.8795ZM67.7716 59.8795V59.5986V59.8795ZM67.7716 59.8795H65.8885V59.5986H67.7716V59.8795ZM65.8684 59.8795V59.5986V59.8795ZM63.9853 59.8795V59.5986V59.8795ZM63.9853 59.8795H62.1022V59.5986H63.9853V59.8795ZM62.1022 59.8795V59.5986V59.8795ZM60.1991 59.8795V59.5986V59.8795ZM60.1991 59.8795H58.316V59.5986H60.1991V59.8795ZM58.316 59.8795V59.5986V59.8795ZM56.4329 59.8795V59.5986V59.8795ZM56.4129 59.8795H54.5298V59.5986H56.4129V59.8795ZM54.5298 59.8795V59.5986V59.8795ZM52.6467 59.8795V59.5986V59.8795ZM52.6467 59.8795H50.7636V59.5986H52.6467V59.8795ZM50.7435 59.8795V59.5986V59.8795ZM48.8604 59.8795V59.5986V59.8795ZM48.8604 59.8795H46.9773V59.5986H48.8604V59.8795ZM46.9773 59.8795V59.5986V59.8795ZM45.0742 59.8795V59.5986V59.8795ZM45.0742 59.8795H43.1911V59.5986H45.0742V59.8795ZM43.1911 59.8795V59.5986V59.8795ZM41.308 59.8795V59.5986V59.8795ZM41.308 59.8795H39.4249V59.5986H41.308V59.8795ZM39.4049 59.8795V59.5986V59.8795ZM37.5218 59.8795V59.5986V59.8795ZM37.5218 59.8795H35.6387V59.5986H37.5218V59.8795Z" fill="#989898"/>
<path d="M70.6359 59.5986H69.6543V59.8795H70.6359V59.5986Z" fill="#989898"/>
<path d="M33.7355 80.2017H32.7539V80.4825H33.7355V80.2017Z" fill="#989898"/>
<path d="M69.6547 80.462V80.1812V80.462ZM67.7716 80.462V80.1812V80.462ZM67.7716 80.462H65.8885V80.1812H67.7716V80.462ZM65.8684 80.462V80.1812V80.462ZM63.9853 80.462V80.1812V80.462ZM63.9853 80.462H62.1022V80.1812H63.9853V80.462ZM62.1022 80.462V80.1812V80.462ZM60.1991 80.462V80.1812V80.462ZM60.1991 80.462H58.316V80.1812H60.1991V80.462ZM58.316 80.462V80.1812V80.462ZM56.4329 80.462V80.1812V80.462ZM56.4129 80.462H54.5298V80.1812H56.4129V80.462ZM54.5298 80.462V80.1812V80.462ZM52.6467 80.462V80.1812V80.462ZM52.6467 80.462H50.7636V80.1812H52.6467V80.462ZM50.7435 80.462V80.1812V80.462ZM48.8604 80.462V80.1812V80.462ZM48.8604 80.462H46.9773V80.1812H48.8604V80.462ZM46.9773 80.462V80.1812V80.462ZM45.0742 80.462V80.1812V80.462ZM45.0742 80.462H43.1911V80.1812H45.0742V80.462ZM43.1911 80.462V80.1812V80.462ZM41.308 80.462V80.1812V80.462ZM41.308 80.462H39.4249V80.1812H41.308V80.462ZM39.4049 80.462V80.1812V80.462ZM37.5218 80.462V80.1812V80.462ZM37.5218 80.462H35.6387V80.1812H37.5218V80.462Z" fill="#989898"/>
<path d="M70.6359 80.2012H69.6543V80.482H70.6359V80.2012Z" fill="#989898"/>
<path d="M33.7355 100.783H32.7539V101.064H33.7355V100.783Z" fill="#989898"/>
<path d="M69.6547 101.063V100.782V101.063ZM67.7716 101.063V100.782V101.063ZM67.7716 101.063H65.8885V100.782H67.7716V101.063ZM65.8684 101.063V100.782V101.063ZM63.9853 101.063V100.782V101.063ZM63.9853 101.063H62.1022V100.782H63.9853V101.063ZM62.1022 101.063V100.782V101.063ZM60.1991 101.063V100.782V101.063ZM60.1991 101.063H58.316V100.782H60.1991V101.063ZM58.316 101.063V100.782V101.063ZM56.4329 101.063V100.782V101.063ZM56.4129 101.063H54.5298V100.782H56.4129V101.063ZM54.5298 101.063V100.782V101.063ZM52.6467 101.063V100.782V101.063ZM52.6467 101.063H50.7636V100.782H52.6467V101.063ZM50.7435 101.063V100.782V101.063ZM48.8604 101.063V100.782V101.063ZM48.8604 101.063H46.9773V100.782H48.8604V101.063ZM46.9773 101.063V100.782V101.063ZM45.0742 101.063V100.782V101.063ZM45.0742 101.063H43.1911V100.782H45.0742V101.063ZM43.1911 101.063V100.782V101.063ZM41.308 101.063V100.782V101.063ZM41.308 101.063H39.4249V100.782H41.308V101.063ZM39.4049 101.063V100.782V101.063ZM37.5218 101.063V100.782V101.063ZM37.5218 101.063H35.6387V100.782H37.5218V101.063Z" fill="#989898"/>
<path d="M70.6359 100.782H69.6543V101.063H70.6359V100.782Z" fill="#989898"/>
<path d="M49.8023 8.7663C49.9225 8.24474 49.9825 7.70311 49.9825 7.14143C49.9825 3.18957 46.7973 0 42.8508 0C38.9043 0 35.7191 3.18957 35.7191 7.14143C35.7191 7.70311 35.7792 8.24474 35.8994 8.7663L21.3955 14.2829V19.2578H64.3061V14.2829L49.8023 8.7663ZM42.8508 10.8726C40.7874 10.8726 39.1247 9.20763 39.1247 7.14143C39.1247 5.07523 40.7874 3.41023 42.8508 3.41023C44.9142 3.41023 46.5769 5.07523 46.5769 7.14143C46.597 9.18756 44.9142 10.8726 42.8508 10.8726Z" fill="#CCCBCB"/>
<path d="M26.9044 27.5027H16.5674V37.8537H26.9044V27.5027Z" stroke="#7F859C" stroke-width="3" stroke-miterlimit="10"/>
<path d="M26.9044 49.3887H16.5674V59.7397H26.9044V49.3887Z" stroke="#7F859C" stroke-width="3" stroke-miterlimit="10"/>
<path d="M26.9044 69.99H16.5674V80.341H26.9044V69.99Z" stroke="#7F859C" stroke-width="3" stroke-miterlimit="10"/>
<path d="M26.9044 90.5715H16.5674V100.923H26.9044V90.5715Z" stroke="#7F859C" stroke-width="3" stroke-miterlimit="10"/>
<path d="M19.3926 31.5946C20.9151 33.1392 23.4993 35.7471 23.4993 35.7471C23.4993 35.7471 28.768 29.9296 32.1335 27.5625" stroke="#676767" stroke-width="2" stroke-miterlimit="10"/>
<path d="M19.3926 53.7211C20.9151 55.2657 23.4993 57.8735 23.4993 57.8735C23.4993 57.8735 28.768 52.0561 32.1335 49.689" stroke="#676767" stroke-width="2" stroke-miterlimit="10"/>
<path d="M19.3926 74.223C20.9151 75.7677 23.4993 78.3755 23.4993 78.3755C23.4993 78.3755 28.768 72.558 32.1335 70.1909" stroke="#676767" stroke-width="2" stroke-miterlimit="10"/>
<path d="M19.3926 94.704C20.9151 96.2486 23.4993 98.8564 23.4993 98.8564C23.4993 98.8564 28.768 93.039 32.1335 90.6719" stroke="#676767" stroke-width="2" stroke-miterlimit="10"/>
<path opacity="0.2" d="M46.5963 7.12137C46.5963 9.18756 44.9335 10.8526 42.8701 10.8526V19.2578H64.3254V14.2829L49.8216 8.7663C49.9418 8.24474 50.0019 7.70311 50.0019 7.14143C50.0019 3.18957 46.8166 0 42.8701 0V3.41023C44.9135 3.39017 46.5963 5.07523 46.5963 7.12137Z" fill="black"/>
</svg>
