<svg width="41" height="41" viewBox="0 0 41 41" fill="none" xmlns="http://www.w3.org/2000/svg">
  <path d="M20.5 41C31.8218 41 41 31.8218 41 20.5C41 9.17814 31.8218 0 20.5 0C9.17815 0 0 9.17814 0 20.5C0 31.8218 9.17815 41 20.5 41Z" fill="#7F859C"/>
  <path d="M19.9275 15.8328L19.911 8.21474H28.6813V30.8949H12.3095V15.8245L19.9275 15.8328ZM11.1572 15.4432V30.8949V32.0471H12.3095H28.6813H29.8335V30.8949V8.21474V7.0625H28.6813H19.6043L11.1572 15.4432Z" fill="#F5F5F7"/>
  <path d="M31 25.4173C31 26.2915 29.989 27 28.7421 27H12.2579C11.0105 27 10 26.2915 10 25.4173V20.5824C10 19.7082 11.0105 19 12.2579 19H28.7421C29.989 19 31 19.7082 31 20.5824V25.4173Z" fill="#F5F5F7"/>
  <path d="M15.8055 21.5V25H16.3755V23.8H17.0555C17.8855 23.8 18.5505 23.54 18.5505 22.65C18.5505 21.76 17.8855 21.5 17.0555 21.5H15.8055ZM17.9705 22.65C17.9705 23.16 17.5655 23.28 17.0855 23.28H16.3755V22.02H17.0855C17.5705 22.02 17.9705 22.14 17.9705 22.65ZM19.2209 21.5V25H20.4459C21.6859 25 22.2859 24.265 22.2859 23.25C22.2859 22.235 21.6859 21.5 20.4459 21.5H19.2209ZM21.7059 23.25C21.7059 24.035 21.2709 24.48 20.4409 24.48H19.7909V22.02H20.4409C21.2709 22.02 21.7059 22.465 21.7059 23.25ZM23.027 21.5V25H23.597V23.58H25.297V23.05H23.597V22.025H25.442V21.5H23.027Z" fill="#7F859C"/>
</svg>
