<svg width="41" height="41" viewBox="0 0 41 41" fill="none" xmlns="http://www.w3.org/2000/svg">
<path d="M20.5 41C31.8218 41 41 31.8218 41 20.5C41 9.17814 31.8218 0 20.5 0C9.17815 0 0 9.17814 0 20.5C0 31.8218 9.17815 41 20.5 41Z" fill="#7F859C"/>
<path d="M19.928 15.8328L19.9115 8.21474H28.6818V30.8949H12.31V15.8245L19.928 15.8328ZM11.1577 15.4432V30.8949V32.0471H12.31H28.6818H29.834V30.8949V8.21474V7.0625H28.6818H19.6048L11.1577 15.4432Z" fill="white"/>
<path d="M13.963 20.2363H26.6211V19.225H13.963V20.2363Z" fill="white"/>
<path d="M13.963 23.7407H26.6211V22.7294H13.963V23.7407Z" fill="white"/>
<path d="M13.963 27.2451H26.6211V26.2338H13.963V27.2451Z" fill="white"/>
</svg>
