<svg width="513" height="282" viewBox="0 0 513 282" fill="none" xmlns="http://www.w3.org/2000/svg">
<g opacity="0.8">
<g opacity="0.81" filter="url(#filter0_ii)">
<path d="M24.0574 164.453C19.8832 157.788 21.9323 149.027 28.6868 144.833C35.4413 140.715 49.1021 139.891 53.2763 146.556C57.4504 153.22 47.1289 160.11 43.1825 166.924C37.7181 176.509 28.2315 171.118 24.0574 164.453Z" fill="#ECF1F7"/>
</g>
<g opacity="0.47" filter="url(#filter1_ii)">
<path d="M481.845 241.509C470.157 237.914 463.63 225.708 467.197 214.176C470.84 202.644 485.715 188.191 497.403 191.786C509.09 195.38 504.081 213.577 506.51 225.409C510.001 241.883 493.532 245.103 481.845 241.509Z" fill="#ECF1F7"/>
</g>
<g opacity="0.47" filter="url(#filter2_ii)">
<path d="M471.069 29.1378C467.882 39.2472 457.029 44.9383 446.707 41.7932C436.462 38.6481 423.56 25.6932 426.748 15.5839C429.935 5.47453 446.176 9.8178 456.725 7.64617C471.373 4.65081 474.257 18.9536 471.069 29.1378Z" fill="#ECF1F7"/>
</g>
<path opacity="0.58" d="M479.265 90.8423C481.151 90.8423 482.68 89.3336 482.68 87.4726C482.68 85.6115 481.151 84.1028 479.265 84.1028C477.379 84.1028 475.85 85.6115 475.85 87.4726C475.85 89.3336 477.379 90.8423 479.265 90.8423Z" fill="#3E479B"/>
<path opacity="0.58" d="M21.6281 268.317C23.5142 268.317 25.0433 266.808 25.0433 264.947C25.0433 263.086 23.5142 261.578 21.6281 261.578C19.7419 261.578 18.2129 263.086 18.2129 264.947C18.2129 266.808 19.7419 268.317 21.6281 268.317Z" fill="#3E479B"/>
<path opacity="0.58" d="M397.302 36.177C399.188 36.177 400.717 34.6683 400.717 32.8072C400.717 30.9461 399.188 29.4374 397.302 29.4374C395.416 29.4374 393.887 30.9461 393.887 32.8072C393.887 34.6683 395.416 36.177 397.302 36.177Z" fill="#3E479B"/>
<path opacity="0.58" d="M233.372 10.7165C235.258 10.7165 236.787 9.20778 236.787 7.3467C236.787 5.48563 235.258 3.97693 233.372 3.97693C231.486 3.97693 229.957 5.48563 229.957 7.3467C229.957 9.20778 231.486 10.7165 233.372 10.7165Z" fill="#3E479B"/>
<path opacity="0.58" d="M495.203 125.289C496.67 125.289 497.859 124.115 497.859 122.668C497.859 121.22 496.67 120.047 495.203 120.047C493.736 120.047 492.547 121.22 492.547 122.668C492.547 124.115 493.736 125.289 495.203 125.289Z" fill="#EF929C"/>
<path opacity="0.58" d="M49.7101 65.3816C51.5963 65.3816 53.1253 63.8729 53.1253 62.0119C53.1253 60.1508 51.5963 58.6421 49.7101 58.6421C47.824 58.6421 46.2949 60.1508 46.2949 62.0119C46.2949 63.8729 47.824 65.3816 49.7101 65.3816Z" fill="#EF929C"/>
<path opacity="0.58" d="M3.4152 223.387C5.30136 223.387 6.83039 221.878 6.83039 220.017C6.83039 218.156 5.30136 216.647 3.4152 216.647C1.52903 216.647 0 218.156 0 220.017C0 221.878 1.52903 223.387 3.4152 223.387Z" fill="#EF929C"/>
<path opacity="0.58" d="M508.864 84.8515C510.751 84.8515 512.28 83.3428 512.28 81.4817C512.28 79.6206 510.751 78.1119 508.864 78.1119C506.978 78.1119 505.449 79.6206 505.449 81.4817C505.449 83.3428 506.978 84.8515 508.864 84.8515Z" fill="#EF929C"/>
<path opacity="0.58" d="M74.7559 21.949C76.2229 21.949 77.4121 20.7756 77.4121 19.3281C77.4121 17.8806 76.2229 16.7072 74.7559 16.7072C73.2889 16.7072 72.0996 17.8806 72.0996 19.3281C72.0996 20.7756 73.2889 21.949 74.7559 21.949Z" fill="#3E479B"/>
<path opacity="0.58" d="M27.7009 79.6097C28.3296 79.6097 28.8393 79.1068 28.8393 78.4864C28.8393 77.8661 28.3296 77.3632 27.7009 77.3632C27.0722 77.3632 26.5625 77.8661 26.5625 78.4864C26.5625 79.1068 27.0722 79.6097 27.7009 79.6097Z" fill="#3E479B"/>
<path opacity="0.58" d="M298.64 4.8755C298.185 7.04713 295.984 8.46993 293.783 8.02062C291.582 7.57132 290.14 5.39969 290.596 3.22805C291.051 1.05642 293.252 -0.366375 295.453 0.0829287C297.654 0.532232 299.096 2.70387 298.64 4.8755Z" fill="#EF929C"/>
<path opacity="0.58" d="M30.7378 15.3593C30.2066 17.5309 28.0816 18.9537 25.8048 18.5044C23.6039 18.0551 22.1619 15.8835 22.6172 13.7118C23.0726 11.5402 25.2735 10.1174 27.4744 10.5667C29.7512 11.016 31.1932 13.1876 30.7378 15.3593Z" fill="#EF929C"/>
<path opacity="0.58" d="M268.967 36.9258C268.815 37.6746 268.056 38.124 267.373 37.9742C266.614 37.8244 266.159 37.0756 266.31 36.4016C266.462 35.7277 267.221 35.2035 267.904 35.3532C268.587 35.503 269.118 36.2519 268.967 36.9258Z" fill="#3E479B"/>
<path opacity="0.58" d="M475.775 257.609C475.547 258.732 474.409 259.481 473.27 259.181C472.132 258.957 471.373 257.833 471.677 256.71C471.904 255.587 473.043 254.838 474.181 255.137C475.244 255.362 476.003 256.485 475.775 257.609Z" fill="#3E479B"/>
<g opacity="0.47" filter="url(#filter3_ii)">
<path d="M473.497 136.447C469.551 101.026 445.037 70.8482 411.417 58.118C368.537 41.943 321.939 60.7389 277.921 52.5765C247.943 47.0351 221.456 29.5872 191.782 22.623C140.63 10.5667 78.9285 31.3095 63.3704 85.0013C60.107 96.3836 59.1962 109.114 62.3838 120.646C66.2543 134.425 75.8168 146.855 70.1249 161.907C67.5445 168.796 62.1561 174.188 57.0712 179.655C28.8389 209.833 27.8523 247.649 51.4551 281.047H68.3034C171.822 281.047 275.416 280.972 378.934 281.047C396.542 281.047 414.149 281.122 431.756 281.122C449.819 281.122 452.627 270.713 451.64 253.116C451.033 243.156 445.872 232.747 446.707 223.087C447.542 213.053 455.587 203.992 460.671 195.829C471.676 178.157 475.774 156.965 473.497 136.447Z" fill="#ECF1F7"/>
</g>
<g filter="url(#filter4_ii)">
<path d="M429.554 257.309C433.5 239.112 427.201 223.537 425.607 205.639C424.09 188.716 430.54 174.488 434.107 158.388C437.295 144.01 436.232 127.835 432.21 113.682C418.398 64.633 364.058 44.3394 316.928 57.3692C297.576 62.686 279.513 72.7204 259.553 74.967C232.99 77.9623 207.035 66.8795 180.624 62.8358C156.262 59.0167 130.307 61.4879 108.905 73.619C87.579 85.7502 71.7173 108.59 71.945 132.927C72.0967 149.027 79.003 165.052 75.8155 180.853C73.7664 190.812 67.9226 199.574 63.8244 208.934C54.3377 230.725 52.8957 261.428 68.2262 281.122H419.536C424.393 273.784 427.732 265.696 429.554 257.309Z" fill="#ECF1F7"/>
</g>
<path d="M412.695 200.192L412.614 200.176C412.217 200.027 411.932 199.607 411.97 199.25L416.773 180.18C418.077 175.031 414.733 169.278 408.968 166.781L404.703 164.938C398.614 162.378 391.963 164.234 389.347 169.276L380.844 185.882C380.643 186.208 380.215 186.344 379.744 186.108C379.355 185.887 379.151 185.483 379.359 185.085L387.863 168.48C390.71 162.825 398.388 160.656 405.264 163.586L409.528 165.43C416.007 168.21 419.847 174.715 418.385 180.563L413.583 199.633C413.455 200.047 413.1 200.27 412.695 200.192Z" fill="#454B62"/>
<path opacity="0.99" d="M426.91 194.326L408.6 253.023C408.086 254.679 406.087 255.464 404.252 254.746L345.179 229.724C343.352 228.934 342.481 227.012 343.313 225.491L370.521 170.623C371.256 169.229 373.068 168.627 374.74 169.314L424.907 190.578C426.424 191.162 427.319 192.869 426.91 194.326Z" fill="#EF929C"/>
<path opacity="0.5" d="M424.295 196.285L407.007 251.74C406.502 253.324 404.592 254.053 402.839 253.351L346.954 229.672C345.282 228.985 344.403 227.135 345.145 225.669L370.857 173.807C371.503 172.469 373.307 171.938 374.816 172.594L422.277 192.68C423.875 193.28 424.704 194.828 424.295 196.285Z" fill="#3E479B"/>
<path opacity="0.99" d="M423.607 205.984L406.214 262.76C405.55 265.043 402.705 266.029 400.167 264.957L340.221 239.47C337.682 238.398 336.477 235.755 337.539 233.622L364.686 180.987C365.636 179.124 368.206 178.377 370.5 179.403L420.693 200.748C422.914 201.686 424.239 203.987 423.607 205.984Z" fill="#EF929C"/>
<path opacity="0.5" d="M378.533 195.652C380.934 195.844 382.82 194.185 382.747 191.948C382.673 189.71 380.667 187.741 378.267 187.549C375.866 187.357 373.98 189.015 374.053 191.253C374.127 193.49 376.133 195.46 378.533 195.652Z" fill="#3E479B"/>
<path opacity="0.5" d="M384.298 194.123C383.165 196.966 379.498 198.082 376.272 196.658C372.957 195.289 371.271 191.829 372.477 189.072C373.69 186.244 377.276 185.113 380.503 186.537C383.737 187.89 385.512 191.295 384.298 194.123Z" fill="#3E479B"/>
<path opacity="0.5" d="M412.175 206.634C411.296 208.652 408.733 209.47 406.452 208.447C404.09 207.408 402.868 204.985 403.739 203.039C404.618 201.021 407.181 200.203 409.462 201.226C411.751 202.178 412.965 204.672 412.175 206.634Z" fill="#3E479B"/>
<path opacity="0.5" d="M413.822 207.392C412.608 210.22 409.022 211.351 405.795 209.927C402.48 208.558 400.794 205.098 402 202.341C403.133 199.498 406.8 198.382 410.026 199.806C413.26 201.159 415.035 204.564 413.822 207.392Z" fill="#3E479B"/>
<path d="M410.236 205.463L410.155 205.447C409.758 205.298 409.473 204.878 409.512 204.52L414.314 185.451C415.618 180.302 412.274 174.549 406.509 172.052L402.244 170.208C396.155 167.649 389.504 169.505 386.888 174.547L378.385 191.153C378.184 191.479 377.756 191.615 377.285 191.379C376.896 191.158 376.692 190.753 376.9 190.356L385.404 173.75C388.251 168.096 395.929 165.927 402.805 168.857L407.069 170.7C413.548 173.481 417.388 179.986 415.926 185.834L411.124 204.904C410.996 205.317 410.641 205.541 410.236 205.463Z" fill="#7F859C"/>
<path d="M381.791 227.298C380.903 227.127 379.942 226.869 379.076 226.483C376.239 225.28 373.986 223.241 372.699 220.66C371.412 218.079 371.295 215.359 372.301 212.928C373.306 210.497 375.315 208.698 378.047 207.84C380.778 206.981 383.805 207.201 386.643 208.404C389.481 209.608 391.733 211.646 393.02 214.227C394.307 216.808 394.424 219.528 393.419 221.959C392.413 224.39 390.404 226.189 387.673 227.048C385.803 227.562 383.73 227.672 381.791 227.298ZM383.777 208.216C381.92 207.858 380.097 207.943 378.308 208.473C375.826 209.307 373.914 210.979 372.931 213.196C372.03 215.428 372.163 218.005 373.311 220.341C374.54 222.692 376.639 224.628 379.235 225.785C381.838 226.87 384.703 227.058 387.177 226.296C389.658 225.462 391.571 223.79 392.554 221.573C394.461 216.911 391.691 211.273 386.25 208.984C385.466 208.614 384.666 208.387 383.777 208.216Z" fill="#ECF1F7"/>
<path d="M91.2888 87.4783C90.9093 87.4783 90.6058 87.1787 90.5299 86.8043L87.7977 64.1145C86.9629 57.1503 91.5165 50.6354 98.3469 48.9131L102.9 47.7898C110.11 45.9926 117.624 50.0363 119.901 57.0754L126.655 77.8183C126.807 78.1927 126.579 78.642 126.2 78.7917C125.82 78.9415 125.365 78.7169 125.213 78.3424L118.459 57.5996C116.409 51.3094 109.731 47.7149 103.28 49.2875L98.7263 50.4107C92.579 51.9084 88.5567 57.7494 89.3156 63.9647L92.0477 86.6546C92.1236 87.029 91.8201 87.4034 91.3647 87.4783H91.2888Z" fill="#7F859C"/>
<path d="M75.8836 76.0959L87.8747 146.487C88.2542 148.509 90.1515 149.857 92.1248 149.332L154.509 133.831C156.406 133.382 157.469 131.36 156.862 129.413L135.46 61.3438C134.929 59.5466 133.107 58.4982 131.362 58.9475L78.3881 72.202C76.6425 72.5764 75.58 74.2987 75.8836 76.0959Z" fill="#7F859C"/>
<path opacity="0.5" d="M78.2374 78.7918L89.5454 145.364C89.849 147.311 91.7463 148.509 93.5678 148.059L152.537 133.382C154.358 132.933 155.345 131.061 154.814 129.189L134.55 64.7885C134.019 63.141 132.349 62.0927 130.68 62.542L80.59 74.9727C78.9963 75.4969 77.9338 77.0695 78.2374 78.7918Z" fill="#2E344B"/>
<path d="M77.1733 89.4252L88.4814 157.57C88.9367 160.265 91.6689 162.063 94.3251 161.389L157.772 145.588C160.428 144.914 162.022 142.143 161.111 139.597L139.482 73.9991C138.723 71.6777 136.218 70.3298 133.79 70.9289L80.6644 84.1084C78.3117 84.7075 76.7938 87.0289 77.1733 89.4252Z" fill="#7F859C"/>
<path opacity="0.5" d="M122.938 85.4564C123.545 87.9276 126.126 89.4252 128.63 88.8262C131.135 88.2271 132.653 85.681 132.046 83.2099C131.438 80.7387 128.858 79.241 126.354 79.8401C123.849 80.4392 122.331 82.9852 122.938 85.4564Z" fill="#3E479B"/>
<path opacity="0.5" d="M121.117 85.9057C122.028 89.3504 125.519 91.4471 129.01 90.5485C132.501 89.6499 134.626 86.2052 133.715 82.7606C132.805 79.3159 129.314 77.2192 125.823 78.1178C122.407 78.9415 120.282 82.3862 121.117 85.9057Z" fill="#444A61"/>
<path opacity="0.5" d="M88.1024 94.0681C88.7095 96.5393 91.2899 98.0369 93.7944 97.4379C96.2988 96.8388 97.8167 94.2927 97.2096 91.8216C96.6024 89.3504 94.022 87.8527 91.5176 88.4518C89.0131 89.1258 87.4952 91.5969 88.1024 94.0681Z" fill="#3E479B"/>
<path opacity="0.5" d="M96.3858 98.2191C99.3373 96.1776 100.053 92.1617 97.9836 89.2495C95.9145 86.3372 91.8445 85.6314 88.893 87.6729C85.9415 89.7145 85.2262 93.7303 87.2952 96.6426C89.3643 99.5548 93.4343 100.261 96.3858 98.2191Z" fill="#444A61"/>
<path d="M92.8845 93.7685C92.5051 93.7685 92.2015 93.469 92.1256 93.0945L89.3934 70.4047C88.5586 63.4405 93.1122 56.9256 99.9426 55.2033L104.496 54.08C111.706 52.2828 119.219 56.3265 121.496 63.3656L128.251 84.1085C128.403 84.4829 128.175 84.9322 127.795 85.082C127.416 85.2317 126.961 85.0071 126.809 84.6327L120.054 63.8898C118.005 57.5996 111.327 54.0051 104.876 55.5777L100.322 56.701C94.1747 58.1986 90.1524 64.0396 90.9113 70.2549L93.6434 92.9448C93.7193 93.3192 93.4158 93.6936 92.9604 93.7685H92.8845Z" fill="#BBC1D8"/>
<path d="M117.321 122.898C112.16 122.898 107.454 119.454 106.088 114.287C104.495 108.146 108.289 101.931 114.513 100.433C117.472 99.6845 120.584 100.134 123.24 101.706C125.897 103.279 127.794 105.75 128.553 108.745C130.147 114.886 126.352 121.101 120.129 122.599C119.218 122.824 118.307 122.898 117.321 122.898ZM106.847 114.062C108.289 119.753 114.209 123.273 119.977 121.775C125.745 120.352 129.312 114.511 127.794 108.82C127.111 106.05 125.365 103.728 122.861 102.305C120.356 100.808 117.472 100.433 114.664 101.107C108.896 102.605 105.405 108.371 106.847 114.062Z" fill="#ECDEDE"/>
<path d="M172.304 158.493L137.552 201.117V210.429H172.976V223.773H183.536V210.429H194.768V200.925H183.536V158.493H172.304ZM172.976 200.925H149.744L172.976 172.413V200.925Z" fill="#7F859C"/>
<path d="M204.581 191.133C204.581 210.237 213.605 225.021 233.861 225.021C254.117 225.021 263.141 210.237 263.141 191.133C263.141 172.029 254.117 157.245 233.861 157.245C213.605 157.245 204.581 172.029 204.581 191.133ZM252.101 191.133C252.101 206.301 246.341 215.037 233.861 215.037C221.285 215.037 215.621 206.301 215.621 191.133C215.621 175.965 221.285 167.229 233.861 167.229C246.341 167.229 252.101 175.965 252.101 191.133Z" fill="#7F859C"/>
<path d="M306.585 158.493L271.833 201.117V210.429H307.257V223.773H317.817V210.429H329.049V200.925H317.817V158.493H306.585ZM307.257 200.925H284.025L307.257 172.413V200.925Z" fill="#7F859C"/>
<mask id="mask0" mask-type="alpha" maskUnits="userSpaceOnUse" x="271" y="158" width="59" height="66">
<path d="M306.585 158.493L271.833 201.117V210.429H307.257V223.773H317.817V210.429H329.049V200.925H317.817V158.493H306.585ZM307.257 200.925H284.025L307.257 172.413V200.925Z" fill="#7F859C"/>
</mask>
<g mask="url(#mask0)">
</g>
</g>
<defs>
<filter id="filter0_ii" x="17.8965" y="137.644" width="40.3559" height="38.474" filterUnits="userSpaceOnUse" color-interpolation-filters="sRGB">
<feFlood flood-opacity="0" result="BackgroundImageFix"/>
<feBlend mode="normal" in="SourceGraphic" in2="BackgroundImageFix" result="shape"/>
<feColorMatrix in="SourceAlpha" type="matrix" values="0 0 0 0 0 0 0 0 0 0 0 0 0 0 0 0 0 0 127 0" result="hardAlpha"/>
<feOffset dx="4" dy="4"/>
<feGaussianBlur stdDeviation="2"/>
<feComposite in2="hardAlpha" operator="arithmetic" k2="-1" k3="1"/>
<feColorMatrix type="matrix" values="0 0 0 0 0.498039 0 0 0 0 0.521569 0 0 0 0 0.611765 0 0 0 0.51 0"/>
<feBlend mode="normal" in2="shape" result="effect1_innerShadow"/>
<feColorMatrix in="SourceAlpha" type="matrix" values="0 0 0 0 0 0 0 0 0 0 0 0 0 0 0 0 0 0 127 0" result="hardAlpha"/>
<feOffset dx="-4" dy="-4"/>
<feGaussianBlur stdDeviation="2"/>
<feComposite in2="hardAlpha" operator="arithmetic" k2="-1" k3="1"/>
<feColorMatrix type="matrix" values="0 0 0 0 0.941176 0 0 0 0 0.956863 0 0 0 0 0.976471 0 0 0 1 0"/>
<feBlend mode="normal" in2="effect1_innerShadow" result="effect2_innerShadow"/>
</filter>
<filter id="filter1_ii" x="462.223" y="187.226" width="48.7633" height="59.6042" filterUnits="userSpaceOnUse" color-interpolation-filters="sRGB">
<feFlood flood-opacity="0" result="BackgroundImageFix"/>
<feBlend mode="normal" in="SourceGraphic" in2="BackgroundImageFix" result="shape"/>
<feColorMatrix in="SourceAlpha" type="matrix" values="0 0 0 0 0 0 0 0 0 0 0 0 0 0 0 0 0 0 127 0" result="hardAlpha"/>
<feOffset dx="4" dy="4"/>
<feGaussianBlur stdDeviation="2"/>
<feComposite in2="hardAlpha" operator="arithmetic" k2="-1" k3="1"/>
<feColorMatrix type="matrix" values="0 0 0 0 0.498039 0 0 0 0 0.521569 0 0 0 0 0.611765 0 0 0 0.51 0"/>
<feBlend mode="normal" in2="shape" result="effect1_innerShadow"/>
<feColorMatrix in="SourceAlpha" type="matrix" values="0 0 0 0 0 0 0 0 0 0 0 0 0 0 0 0 0 0 127 0" result="hardAlpha"/>
<feOffset dx="-4" dy="-4"/>
<feGaussianBlur stdDeviation="2"/>
<feComposite in2="hardAlpha" operator="arithmetic" k2="-1" k3="1"/>
<feColorMatrix type="matrix" values="0 0 0 0 0.941176 0 0 0 0 0.956863 0 0 0 0 0.976471 0 0 0 1 0"/>
<feBlend mode="normal" in2="effect1_innerShadow" result="effect2_innerShadow"/>
</filter>
<filter id="filter2_ii" x="422.254" y="3.242" width="53.9828" height="43.4175" filterUnits="userSpaceOnUse" color-interpolation-filters="sRGB">
<feFlood flood-opacity="0" result="BackgroundImageFix"/>
<feBlend mode="normal" in="SourceGraphic" in2="BackgroundImageFix" result="shape"/>
<feColorMatrix in="SourceAlpha" type="matrix" values="0 0 0 0 0 0 0 0 0 0 0 0 0 0 0 0 0 0 127 0" result="hardAlpha"/>
<feOffset dx="4" dy="4"/>
<feGaussianBlur stdDeviation="2"/>
<feComposite in2="hardAlpha" operator="arithmetic" k2="-1" k3="1"/>
<feColorMatrix type="matrix" values="0 0 0 0 0.498039 0 0 0 0 0.521569 0 0 0 0 0.611765 0 0 0 0.51 0"/>
<feBlend mode="normal" in2="shape" result="effect1_innerShadow"/>
<feColorMatrix in="SourceAlpha" type="matrix" values="0 0 0 0 0 0 0 0 0 0 0 0 0 0 0 0 0 0 127 0" result="hardAlpha"/>
<feOffset dx="-4" dy="-4"/>
<feGaussianBlur stdDeviation="2"/>
<feComposite in2="hardAlpha" operator="arithmetic" k2="-1" k3="1"/>
<feColorMatrix type="matrix" values="0 0 0 0 0.941176 0 0 0 0 0.956863 0 0 0 0 0.976471 0 0 0 1 0"/>
<feBlend mode="normal" in2="effect1_innerShadow" result="effect2_innerShadow"/>
</filter>
<filter id="filter3_ii" x="30.7461" y="15.3002" width="447.358" height="269.822" filterUnits="userSpaceOnUse" color-interpolation-filters="sRGB">
<feFlood flood-opacity="0" result="BackgroundImageFix"/>
<feBlend mode="normal" in="SourceGraphic" in2="BackgroundImageFix" result="shape"/>
<feColorMatrix in="SourceAlpha" type="matrix" values="0 0 0 0 0 0 0 0 0 0 0 0 0 0 0 0 0 0 127 0" result="hardAlpha"/>
<feOffset dx="4" dy="4"/>
<feGaussianBlur stdDeviation="7"/>
<feComposite in2="hardAlpha" operator="arithmetic" k2="-1" k3="1"/>
<feColorMatrix type="matrix" values="0 0 0 0 0.498039 0 0 0 0 0.521569 0 0 0 0 0.611765 0 0 0 0.51 0"/>
<feBlend mode="normal" in2="shape" result="effect1_innerShadow"/>
<feColorMatrix in="SourceAlpha" type="matrix" values="0 0 0 0 0 0 0 0 0 0 0 0 0 0 0 0 0 0 127 0" result="hardAlpha"/>
<feOffset dx="-4" dy="-4"/>
<feGaussianBlur stdDeviation="7"/>
<feComposite in2="hardAlpha" operator="arithmetic" k2="-1" k3="1"/>
<feColorMatrix type="matrix" values="0 0 0 0 0.498039 0 0 0 0 0.521569 0 0 0 0 0.611765 0 0 0 0.51 0"/>
<feBlend mode="normal" in2="effect1_innerShadow" result="effect2_innerShadow"/>
</filter>
<filter id="filter4_ii" x="52.6855" y="49.5133" width="387.29" height="235.609" filterUnits="userSpaceOnUse" color-interpolation-filters="sRGB">
<feFlood flood-opacity="0" result="BackgroundImageFix"/>
<feBlend mode="normal" in="SourceGraphic" in2="BackgroundImageFix" result="shape"/>
<feColorMatrix in="SourceAlpha" type="matrix" values="0 0 0 0 0 0 0 0 0 0 0 0 0 0 0 0 0 0 127 0" result="hardAlpha"/>
<feOffset dx="4" dy="4"/>
<feGaussianBlur stdDeviation="7"/>
<feComposite in2="hardAlpha" operator="arithmetic" k2="-1" k3="1"/>
<feColorMatrix type="matrix" values="0 0 0 0 0.498039 0 0 0 0 0.521569 0 0 0 0 0.611765 0 0 0 0.51 0"/>
<feBlend mode="normal" in2="shape" result="effect1_innerShadow"/>
<feColorMatrix in="SourceAlpha" type="matrix" values="0 0 0 0 0 0 0 0 0 0 0 0 0 0 0 0 0 0 127 0" result="hardAlpha"/>
<feOffset dx="-4" dy="-4"/>
<feGaussianBlur stdDeviation="7"/>
<feComposite in2="hardAlpha" operator="arithmetic" k2="-1" k3="1"/>
<feColorMatrix type="matrix" values="0 0 0 0 0.498039 0 0 0 0 0.521569 0 0 0 0 0.611765 0 0 0 0.51 0"/>
<feBlend mode="normal" in2="effect1_innerShadow" result="effect2_innerShadow"/>
</filter>
</defs>
</svg>
