<svg width="394" height="505" xmlns="http://www.w3.org/2000/svg" viewBox="0 0 394 505">
<style type="text/css">
	.st0{fill:#7F859C;}
	.st1{fill:#5A5E6E;}
	.st2{fill:#5A5F75;}
	.st3{fill:none;stroke:#ECDEDE;stroke-width:3;stroke-linecap:round;stroke-linejoin:round;stroke-dasharray:6,12;}
</style>
<path class="st0" d="M255.1,129.1c0,2.5,1.7,5.1,5.1,5.1s5.1-2.5,5.1-5.1s-1.7-5.1-5.1-5.1S255.1,126.6,255.1,129.1z M264.2,129.1
	c0,2-1.3,3.9-3.9,3.9s-3.9-1.9-3.9-3.9s1.3-3.9,3.9-3.9S264.2,127.1,264.2,129.1z M273.6,130.8c0-2-1.5-3.3-3.3-3.3
	c-1.1,0-2,0.5-2.5,1.3c0.3-0.9,0.7-1.8,1.6-2.3c1.5-0.9,2.6-0.6,3.6-1.3V124c-1,1-2.3,0.4-4.2,1.6c-1.2,0.8-2.1,2.3-2.1,4.6
	c0,2.5,1.5,3.9,3.5,3.9C272.2,134.2,273.6,132.9,273.6,130.8z M267.8,130.9c0-1.1,0.9-2.2,2.3-2.2c1.5,0,2.3,1,2.3,2.2
	c0,1.3-0.9,2.2-2.3,2.2C268.7,133.1,267.8,132.1,267.8,130.9z M279.1,127.3l-1.8,2.5l-1.8-2.5h-1.3l2.5,3.3L274,134h1.3l2-2.7l2,2.7
	h1.3l-2.6-3.5l2.5-3.3H279.1z M285.6,134c1.5,0,2.2-0.8,2.2-1.9c0-0.8-0.6-1.4-1.1-1.6c0.5-0.2,0.9-0.8,0.9-1.5
	c0-1.2-0.9-1.8-2.1-1.8h-3.7v6.7H285.6z M282.9,131.1h2.6c0.6,0,1.2,0.2,1.2,1c0,0.7-0.5,1-1.2,1h-2.5V131.1z M282.9,128.3h2.4
	c0.5,0,1.1,0.2,1.1,1c0,0.7-0.5,0.9-1.1,0.9h-2.4V128.3z M294.9,132.6V130c0-1.9-1.1-2.9-2.9-2.9c-1.1,0-2,0.3-2.6,0.4v1.1
	c0.6-0.3,1.4-0.5,2.4-0.5c1.2,0,1.9,0.7,1.9,1.7v0.2c-0.6-0.1-1.3-0.2-1.9-0.2c-1.5,0-3,0.5-3,2.3c0,1.4,1.2,2,2.4,2
	c1.1,0,2-0.3,2.6-0.9c0.2,0.6,0.7,0.8,1.2,0.8c0.3,0,0.6-0.1,0.8-0.2V133c-0.2,0.1-0.4,0.1-0.5,0.1
	C295.1,133.1,294.9,133,294.9,132.6z M290,132.1c0-1,1.1-1.3,2-1.3c0.5,0,1.2,0.1,1.7,0.2v1.2c-0.6,0.6-1.4,1-2.3,1
	C290.7,133.2,290,132.9,290,132.1z M299.6,134v-5.7h2.5v-1H296v1h2.5v5.7H299.6z M309.6,134v-5.7h2.5v-1H306v1h2.5v5.7H309.6z
	 M318.8,132.6V130c0-1.9-1.1-2.9-2.9-2.9c-1.1,0-2,0.3-2.6,0.4v1.1c0.6-0.3,1.4-0.5,2.4-0.5c1.2,0,1.9,0.7,1.9,1.7v0.2
	c-0.6-0.1-1.3-0.2-1.9-0.2c-1.4,0-3,0.5-3,2.3c0,1.4,1.2,2,2.4,2c1.1,0,1.9-0.3,2.6-0.9c0.2,0.6,0.7,0.8,1.2,0.8
	c0.3,0,0.6-0.1,0.8-0.2V133c-0.2,0.1-0.4,0.1-0.5,0.1C319,133.1,318.8,133,318.8,132.6z M313.9,132.1c0-1,1.1-1.3,2-1.3
	c0.5,0,1.2,0.1,1.7,0.2v1.2c-0.6,0.6-1.4,1-2.3,1C314.6,133.2,313.9,132.9,313.9,132.1z M323.4,128.3h2.7v5.7h1.1v-6.7h-4.9
	c-0.1,3.6-0.5,5.9-1.7,5.9c-0.1,0-0.3,0-0.4-0.1v0.9c0.3,0.1,0.6,0.2,0.8,0.2C322.7,134.1,323.2,131.8,323.4,128.3z M330.3,134
	l4.1-4.9v4.9h1.1v-6.7h-0.9l-4.1,4.9v-4.9h-1.1v6.7H330.3z M338.5,134l4.1-4.9v4.9h1.1v-6.7h-0.9l-4.1,4.9v-4.9h-1.1v6.7H338.5z
	 M346,136.1l1.1-3.2h-1.2l-0.8,3.2H346z M356.2,134c1.5,0,2.2-0.8,2.2-1.9c0-0.8-0.6-1.4-1.1-1.6c0.5-0.2,0.9-0.8,0.9-1.5
	c0-1.2-0.9-1.8-2.1-1.8h-3.7v6.7H356.2z M353.6,131.1h2.6c0.6,0,1.2,0.2,1.2,1c0,0.7-0.5,1-1.2,1h-2.5V131.1z M353.6,128.3h2.4
	c0.5,0,1.1,0.2,1.1,1c0,0.7-0.5,0.9-1.1,0.9h-2.4V128.3z M363.1,130.7c0,2.4,1.8,3.5,3.6,3.5c0.8,0,1.6-0.2,2.2-0.5v-1.1
	c-0.6,0.3-1.3,0.5-2,0.5c-1.3,0-2.6-0.8-2.6-2.5c0-1.8,1.4-2.5,2.7-2.5c0.7,0,1.4,0.2,1.9,0.6v-1.1c-0.6-0.4-1.3-0.5-2.1-0.5
	C365,127.1,363.1,128.2,363.1,130.7z M371.6,134v-5.1l2.2,3.3h0.8l2.2-3.3v5.1h1.1v-6.7h-1.2l-2.5,3.7l-2.4-3.7h-1.2v6.7H371.6z"/>
<path class="st0" d="M238.1,74.1c0,2.5,1.7,5.1,5.1,5.1c3.4,0,5.1-2.5,5.1-5.1c0-2.5-1.7-5.1-5.1-5.1
	C239.8,69,238.1,71.6,238.1,74.1z M247.2,74.1c0,2-1.3,3.9-3.9,3.9c-2.7,0-3.9-1.9-3.9-3.9c0-2,1.3-3.9,3.9-3.9
	C245.9,70.2,247.2,72.1,247.2,74.1z M256.6,75.8c0-2-1.5-3.3-3.3-3.3c-1.1,0-2,0.5-2.5,1.3c0.3-0.9,0.7-1.8,1.6-2.3
	c1.5-0.9,2.6-0.6,3.6-1.3V69c-1,1-2.3,0.4-4.2,1.6c-1.2,0.8-2.1,2.3-2.1,4.6c0,2.5,1.5,3.9,3.5,3.9
	C255.2,79.2,256.6,77.9,256.6,75.8z M250.8,75.9c0-1.1,0.9-2.2,2.3-2.2c1.5,0,2.3,1,2.3,2.2s-0.9,2.2-2.3,2.2
	C251.7,78.1,250.8,77.1,250.8,75.9z M262.1,72.3l-1.8,2.5l-1.8-2.5h-1.3l2.5,3.3L257,79h1.3l2-2.7l2,2.7h1.3l-2.6-3.5l2.5-3.3H262.1
	z M268.6,79c1.5,0,2.2-0.8,2.2-1.9c0-0.8-0.6-1.4-1.1-1.6c0.5-0.2,0.9-0.8,0.9-1.5c0-1.2-0.9-1.8-2.1-1.8h-3.7V79H268.6z
	 M265.9,76.1h2.6c0.6,0,1.2,0.2,1.2,1c0,0.7-0.5,1-1.2,1h-2.5V76.1z M265.9,73.3h2.4c0.5,0,1.1,0.2,1.1,1c0,0.7-0.5,0.9-1.1,0.9
	h-2.4V73.3z M277.9,77.6V75c0-1.9-1.1-2.9-2.9-2.9c-1.1,0-2,0.3-2.6,0.4v1.1c0.6-0.3,1.4-0.5,2.4-0.5c1.2,0,1.9,0.7,1.9,1.7v0.2
	c-0.6-0.1-1.3-0.2-1.9-0.2c-1.5,0-3,0.5-3,2.3c0,1.4,1.2,2,2.4,2c1.1,0,2-0.3,2.6-0.9c0.2,0.6,0.7,0.8,1.2,0.8
	c0.3,0,0.6-0.1,0.8-0.2V78c-0.2,0.1-0.4,0.1-0.5,0.1C278.1,78.1,277.9,78,277.9,77.6z M273,77.1c0-1,1.1-1.3,2-1.3
	c0.5,0,1.2,0.1,1.7,0.2v1.2c-0.6,0.6-1.4,1-2.3,1C273.7,78.2,273,77.9,273,77.1z M282.6,79v-5.7h2.5v-1H279v1h2.5V79H282.6z
	 M290.9,79v-5.7h3.8v-1h-4.9V79H290.9z M297,73.4v-1.1h-1v9.8h1.1V78c0.5,0.6,1.3,1.2,2.6,1.2c1.9,0,3.4-1.5,3.4-3.5
	s-1.4-3.5-3.4-3.5C298.5,72.1,297.6,72.7,297,73.4z M302,75.6c0,1.5-1.1,2.5-2.4,2.5c-1.2,0-2.1-0.8-2.5-1.7v-1.7
	c0.4-0.9,1.3-1.7,2.5-1.7C300.9,73.1,302,74.1,302,75.6z M307.3,77.7l-2.5-5.4h-1.2l3.2,6.7l-0.3,0.6c-0.4,1.1-1,1.6-1.7,1.6
	c-0.2,0-0.4,0-0.6-0.1v1c0.3,0.1,0.5,0.1,0.7,0.1c1,0,1.8-0.6,2.5-2.2l3.3-7.7h-1.2L307.3,77.7z M311.9,80.8V79h5.8v1.8h1.1V78h-1
	v-5.7h-5c0,2.5-0.3,4.2-1.1,5.7h-0.9v2.8H311.9z M313.9,73.3h2.8V78h-3.8C313.5,76.7,313.8,75.3,313.9,73.3z M321.3,79l4.1-4.9V79
	h1.1v-6.7h-1l-4.1,4.9v-4.9h-1.1V79H321.3z M328.7,81.1l1.1-3.2h-1.2l-0.8,3.2H328.7z M339,79c1.5,0,2.2-0.8,2.2-1.9
	c0-0.8-0.6-1.4-1.1-1.6c0.5-0.2,0.9-0.8,0.9-1.5c0-1.2-0.9-1.8-2.1-1.8h-3.7V79H339z M336.3,76.1h2.6c0.6,0,1.2,0.2,1.2,1
	c0,0.7-0.5,1-1.2,1h-2.5V76.1z M336.3,73.3h2.4c0.5,0,1.1,0.2,1.1,1c0,0.7-0.5,0.9-1.1,0.9h-2.4V73.3z M345.9,75.7
	c0,2.4,1.8,3.5,3.6,3.5c0.8,0,1.6-0.2,2.2-0.5v-1.1c-0.6,0.3-1.3,0.5-2,0.5c-1.3,0-2.6-0.8-2.6-2.5c0-1.8,1.3-2.5,2.7-2.5
	c0.7,0,1.4,0.2,1.9,0.6v-1.1c-0.6-0.4-1.3-0.5-2.1-0.5C347.8,72.1,345.9,73.2,345.9,75.7z M354.4,79v-5.1l2.2,3.3h0.8l2.2-3.3V79
	h1.1v-6.7h-1.2L357,76l-2.4-3.7h-1.2V79H354.4z"/>
<path class="st0" d="M264.1,197.1c0,2.5,1.7,5.1,5.1,5.1s5.1-2.5,5.1-5.1s-1.7-5.1-5.1-5.1S264.1,194.6,264.1,197.1z M273.2,197.1
	c0,2-1.3,3.9-3.9,3.9s-3.9-1.9-3.9-3.9s1.3-3.9,3.9-3.9S273.2,195.1,273.2,197.1z M282.6,198.8c0-2-1.5-3.3-3.3-3.3
	c-1.1,0-2,0.5-2.5,1.3c0.3-0.9,0.7-1.8,1.6-2.3c1.5-0.9,2.6-0.6,3.6-1.3V192c-1,1-2.3,0.4-4.2,1.6c-1.2,0.8-2.1,2.3-2.1,4.6
	c0,2.5,1.5,3.9,3.5,3.9C281.2,202.2,282.6,200.9,282.6,198.8z M276.8,198.9c0-1.1,0.9-2.2,2.3-2.2c1.5,0,2.3,1,2.3,2.2
	c0,1.3-0.9,2.2-2.3,2.2C277.7,201.1,276.8,200.1,276.8,198.9z M288.1,195.3l-1.8,2.5l-1.8-2.5h-1.3l2.5,3.3L283,202h1.3l2-2.7l2,2.7
	h1.3l-2.6-3.5l2.5-3.3H288.1z M294.6,202c1.5,0,2.2-0.8,2.2-1.9c0-0.8-0.6-1.4-1.1-1.6c0.5-0.2,0.9-0.8,0.9-1.5
	c0-1.2-0.9-1.8-2.1-1.8h-3.7v6.7H294.6z M291.9,199.1h2.6c0.6,0,1.2,0.2,1.2,1c0,0.7-0.5,1-1.2,1h-2.5V199.1z M291.9,196.3h2.4
	c0.5,0,1.1,0.2,1.1,1c0,0.7-0.5,0.9-1.1,0.9h-2.4V196.3z M303.9,200.6V198c0-1.9-1.1-2.9-2.9-2.9c-1.1,0-2,0.3-2.6,0.4v1.1
	c0.6-0.3,1.4-0.5,2.4-0.5c1.2,0,1.9,0.7,1.9,1.7v0.2c-0.6-0.1-1.3-0.2-1.9-0.2c-1.5,0-3,0.5-3,2.3c0,1.4,1.2,2,2.4,2
	c1.1,0,2-0.3,2.6-0.9c0.2,0.6,0.7,0.8,1.2,0.8c0.3,0,0.6-0.1,0.8-0.2V201c-0.2,0.1-0.4,0.1-0.5,0.1
	C304.1,201.1,303.9,201,303.9,200.6z M299,200.1c0-1,1.1-1.3,2-1.3c0.5,0,1.2,0.1,1.7,0.2v1.2c-0.6,0.6-1.4,1-2.3,1
	C299.7,201.2,299,200.9,299,200.1z M308.6,202v-5.7h2.5v-1H305v1h2.5v5.7H308.6z M322.4,198.8c0-2-1.6-3.3-3.3-3.3
	c-1,0-2,0.5-2.5,1.3c0.3-0.9,0.7-1.8,1.6-2.3c1.5-0.9,2.6-0.6,3.6-1.3V192c-1,1-2.3,0.4-4.3,1.6c-1.2,0.8-2.1,2.3-2.1,4.6
	c0,2.5,1.5,3.9,3.5,3.9S322.4,200.9,322.4,198.8z M316.6,198.9c0-1.1,0.9-2.2,2.3-2.2c1.5,0,2.3,1,2.3,2.2c0,1.3-0.9,2.2-2.3,2.2
	C317.5,201.1,316.6,200.1,316.6,198.9z M323.6,198.6c0,2.4,1.7,3.5,3.7,3.5c0.9,0,1.8-0.2,2.4-0.5v-1.1c-0.6,0.3-1.4,0.5-2.2,0.5
	c-1.4,0-2.6-0.6-2.8-2h5.3c0.4-1.9-0.5-4-3.1-4C325.3,195.1,323.6,196.3,323.6,198.6z M329,198.1h-4.3c0.1-1.3,1.1-2,2.3-2
	C328.7,196.1,329.1,197.4,329,198.1z M332,203.8V202h5.8v1.8h1.1V201h-1v-5.7h-5c0,2.5-0.3,4.2-1.2,5.7h-0.9v2.8H332z M334,196.3
	h2.8v4.7H333C333.6,199.7,333.9,198.3,334,196.3z M339.8,198.6c0,2.4,1.7,3.5,3.7,3.5c0.9,0,1.8-0.2,2.4-0.5v-1.1
	c-0.6,0.3-1.4,0.5-2.2,0.5c-1.4,0-2.6-0.6-2.8-2h5.3c0.4-1.9-0.5-4-3.1-4C341.6,195.1,339.8,196.3,339.8,198.6z M345.3,198.1h-4.4
	c0.1-1.3,1.1-2,2.3-2C344.9,196.1,345.4,197.4,345.3,198.1z M348.9,196.4v-1.1h-1v9.8h1.1V201c0.5,0.6,1.3,1.2,2.6,1.2
	c1.9,0,3.4-1.5,3.4-3.5c0-2-1.4-3.5-3.4-3.5C350.4,195.1,349.5,195.7,348.9,196.4z M353.9,198.6c0,1.5-1.1,2.5-2.4,2.5
	c-1.2,0-2.1-0.8-2.5-1.7v-1.7c0.4-0.9,1.3-1.7,2.5-1.7C352.8,196.1,353.9,197.1,353.9,198.6z M356.6,204.1l1.1-3.2h-1.2l-0.8,3.2
	H356.6z M366.8,202c1.4,0,2.2-0.8,2.2-1.9c0-0.8-0.6-1.4-1.1-1.6c0.5-0.2,0.9-0.8,0.9-1.5c0-1.2-0.9-1.8-2.1-1.8H363v6.7H366.8z
	 M364.1,199.1h2.6c0.6,0,1.2,0.2,1.2,1c0,0.7-0.5,1-1.2,1h-2.5V199.1z M364.1,196.3h2.4c0.5,0,1.1,0.2,1.1,1c0,0.7-0.5,0.9-1.1,0.9
	h-2.4V196.3z M373.7,198.7c0,2.4,1.8,3.5,3.6,3.5c0.8,0,1.5-0.2,2.2-0.5v-1.1c-0.6,0.3-1.3,0.5-2,0.5c-1.3,0-2.6-0.8-2.6-2.5
	c0-1.8,1.4-2.5,2.7-2.5c0.7,0,1.4,0.2,1.9,0.6v-1.1c-0.6-0.4-1.3-0.5-2.1-0.5C375.6,195.1,373.7,196.2,373.7,198.7z M382.2,202v-5.1
	l2.2,3.3h0.8l2.2-3.3v5.1h1.1v-6.7h-1.2l-2.4,3.7l-2.5-3.7h-1.2v6.7H382.2z"/>
<path class="st1" d="M201,495.9c-10.7,0-27.2-9.1-27.2-22.2c0-9.7-7.8-17.6-17.6-17.6h-6.7V262.1h-12v194.1h-6.7
	c-9.7,0-17.6,7.8-17.6,17.6c0,13.1-16.4,22.2-27.2,22.2c-8.1,0-4,5.2-1.5,7.6c0.9,0.9,2.1,1.4,3.3,1.4h16.6c2.6,0,5.1-1.3,6.3-3.6
	c4.6-7.7,15.8-25.3,24.8-27.7h1.8v7c0,3,2.4,5.3,5.3,5.3h1.5c3,0,5.3-2.4,5.3-5.3v-7h1.8c9.1,2.3,20.3,20,24.8,27.7
	c1.3,2.3,3.7,3.6,6.3,3.6H199c1.2,0,2.5-0.5,3.3-1.4C205,501.1,209.1,495.9,201,495.9z"/>
<path class="st0" d="M143.5,274.1c41.9,0,75.9-6.9,75.9-15.3c2.2-48.9-9.8-73-29.6-91.9c-19.8-18.9-11.4-36.2-9.2-41.6
	c2.2-5.4,30.8-66.4,34.6-73.6c3.8-7.2-3.6-20.7-29.4-21.8c-25.8-1.1-22.2-26.5-22.2-26.5c0-1.1-9-3.4-20-3.4c-11.1,0-20,2.3-20,3.4
	c0,0,3.5,25.4-22.2,26.5C75.7,31,68.2,44.6,72,51.7c3.8,7.2,32.4,68.2,34.6,73.6c2.2,5.4,10.6,22.7-9.2,41.6
	c-19.8,18.9-31.8,43-29.6,91.9C67.7,267.3,101.6,274.1,143.5,274.1z"/>
<path class="st2" d="M122.1,25.6c0.1,0.1,0,0.4-0.4,0.9c-0.1,0.1-0.2,0.3-0.3,0.4c-0.1,0.2-0.2,0.3-0.4,0.5c-0.3,0.3-0.6,0.7-1,1.1
	c-0.8,0.8-1.7,1.7-3.1,2.6c-1.2,0.9-2.9,1.8-4.7,2.6c-1.8,0.8-3.9,1.3-6.2,1.8c-1.1,0.2-2.3,0.4-3.5,0.5c-1.1,0.1-2.4,0.2-3.6,0.3
	c-0.6,0-1.2,0.1-1.8,0.2c-0.7,0.1-1.2,0.2-1.9,0.3c-0.7,0.1-1.2,0.2-1.9,0.4l-0.5,0.1l-0.5,0.1c-0.3,0.1-0.7,0.2-1,0.2
	c-2.6,0.7-5.2,1.5-7.6,2.8c-1.2,0.7-2.4,1.3-3.3,2.2c-0.3,0.2-0.5,0.5-0.8,0.7c-0.3,0.2-0.5,0.5-0.7,0.7c-0.2,0.2-0.4,0.5-0.6,0.7
	c-0.2,0.3-0.4,0.5-0.5,0.8c-0.1,0.1-0.2,0.3-0.2,0.4l-0.2,0.4c-0.1,0.3-0.2,0.5-0.3,0.8c-0.1,0.3-0.1,0.5-0.2,0.8
	c0,0.3-0.1,0.5,0,0.7v0.2v0.2c0,0.1,0,0.2,0.1,0.3c0,0,0,0.1,0.1,0.1v0.1l0.1,0.1l0.2,0.5c0.3,0.6,0.6,1.1,0.9,1.7
	c1.1,2.3,2.1,4.5,3.1,6.5c1,2,1.8,3.9,2.6,5.7c3.1,7,4.8,11.5,4.4,11.6c-0.4,0.2-2.7-3.9-6.2-10.7c-1.7-3.3-3.8-7.5-6.1-11.9
	c-0.3-0.6-0.6-1.1-0.9-1.7l-0.2-0.5L75,50.1l-0.1-0.2l-0.1-0.3c-0.1-0.2-0.2-0.5-0.2-0.7l-0.1-0.4v-0.3c-0.1-0.5,0-0.9,0-1.2
	c0.1-0.4,0.1-0.9,0.3-1.2c0.1-0.4,0.3-0.8,0.4-1.1c0.1-0.2,0.2-0.4,0.3-0.6c0.1-0.2,0.2-0.4,0.3-0.5c0.2-0.4,0.5-0.7,0.7-1
	c0.3-0.3,0.5-0.6,0.8-0.9c0.3-0.3,0.5-0.6,0.8-0.9c0.3-0.3,0.6-0.6,0.9-0.8c1.1-1.1,2.5-1.8,3.8-2.6c2.7-1.4,5.5-2.4,8.3-3.1
	c0.4-0.1,0.7-0.2,1.1-0.2l0.5-0.1l0.5-0.1c0.7-0.1,1.3-0.2,2-0.3c0.7-0.1,1.3-0.2,2-0.2c0.7-0.1,1.3-0.2,1.9-0.2
	c1.2-0.1,2.5-0.1,3.7-0.2c1.1-0.1,2.3-0.2,3.3-0.3c2.2-0.3,4.1-0.8,5.8-1.3c3.5-1.1,6-2.9,7.6-4.1c0.4-0.3,0.8-0.6,1.1-0.9
	c0.2-0.1,0.3-0.3,0.5-0.4c0.1-0.1,0.3-0.2,0.4-0.3C121.8,25.7,122,25.5,122.1,25.6z"/>
<path class="st2" d="M110.9,123.6c0.1,0,0.3,0.2,0.7,0.8c0.3,0.6,0.8,1.3,1.2,2.4c1,2.1,2.2,5.4,2.9,9.6c0.3,2.1,0.5,4.5,0.4,7
	c-0.1,2.5-0.6,5.2-1.3,7.9c-0.8,2.8-1.9,5.4-3.4,8.1c-1.5,2.7-3.3,5.3-5.4,7.7l-0.4,0.5L105,168c-0.3,0.3-0.6,0.6-0.9,0.9
	c-0.6,0.6-1.1,1.1-1.6,1.7c-1.1,1.1-2.2,2.1-3.2,3.2c-0.5,0.5-1.1,1.1-1.5,1.5c-0.5,0.6-1,1.1-1.4,1.6c-1,1.1-1.9,2-2.8,3.1
	c-0.4,0.5-0.9,1.1-1.2,1.5c-0.2,0.3-0.4,0.5-0.7,0.8l-0.3,0.4c-0.1,0.1-0.2,0.3-0.3,0.4c-0.8,1.1-1.5,2-2.2,3c-0.4,0.5-0.7,1-1,1.4
	c-0.3,0.5-0.7,1-1,1.4c-0.3,0.5-0.6,1-0.9,1.3c-0.1,0.1-0.2,0.2-0.2,0.3c-0.1,0.1-0.1,0.2-0.2,0.4c-0.1,0.2-0.3,0.5-0.4,0.7
	c-0.5,0.9-1.1,1.7-1.4,2.5c-0.1,0.2-0.2,0.4-0.4,0.6c-0.1,0.2-0.2,0.4-0.3,0.6c-0.2,0.4-0.4,0.8-0.6,1.1c-0.8,1.4-1.4,2.7-1.9,3.7
	c-1,2.1-1.6,3.3-1.8,3.2c-0.2-0.1,0.1-1.3,0.8-3.5c0.3-1.1,0.9-2.5,1.5-4c0.2-0.4,0.3-0.8,0.5-1.1c0.1-0.2,0.2-0.4,0.3-0.7
	c0.1-0.2,0.2-0.4,0.3-0.7c0.4-0.9,0.9-1.7,1.3-2.7c0.1-0.2,0.2-0.5,0.4-0.7c0.1-0.1,0.1-0.3,0.2-0.4c0.1-0.1,0.1-0.2,0.2-0.4
	c0.3-0.5,0.6-1,0.9-1.4c0.3-0.5,0.6-1,0.9-1.5c0.3-0.5,0.6-1.1,1-1.5c0.7-1.1,1.4-2.1,2.2-3.2c0.1-0.1,0.2-0.3,0.3-0.4l0.3-0.4
	c0.2-0.3,0.4-0.6,0.6-0.8c0.4-0.6,0.9-1.1,1.2-1.6c0.9-1.1,1.8-2.2,2.8-3.2c0.5-0.6,1-1.1,1.4-1.6c0.5-0.6,1.1-1.1,1.5-1.6
	c1.1-1.1,2.1-2.1,3.3-3.2c0.6-0.6,1.1-1.1,1.6-1.6c0.3-0.3,0.5-0.6,0.8-0.9l0.4-0.4l0.4-0.5c2-2.3,3.7-4.8,5.3-7.3
	c1.4-2.5,2.6-5.1,3.3-7.5c1.6-5.1,1.8-9.8,1.4-13.9c-0.4-4-1.3-7.2-1.9-9.4c-0.3-1.1-0.6-2-0.8-2.6
	C110.8,124,110.8,123.6,110.9,123.6z"/>
<path class="st3" d="M392.5,84H1.5"/>
<path class="st3" d="M392.5,140H1.5"/>
<path class="st3" d="M392.5,209H1.5"/>
</svg>
