<svg xmlns="http://www.w3.org/2000/svg" viewBox="0 0 50 14">
<g opacity="0.6" fill="#fff">
	<path d="M13.5,0L13.5,0c0,0-2,0-2.5,1.8c-0.5,1.7-1.8,6.3-1.9,6.5H8.8c0,0-1.4-4.8-1.9-6.5C6.4,0,4.4,0,4.4,0H0v14h4.4V5.7h0.2h0.2L7.4,14h3.1l2.6-8.3h0.4V14h4.4V0H13.5z"/>
	<path d="M29.7,0c0,0-1.3,0.1-1.9,1.5l-3.2,6.8h-0.4V0h-4.4v14H24c0,0,1.4-0.1,2-1.5l3.1-6.8h0.4V14h4.4V0H29.7z"/>
	<path d="M35.9,6.4V14h4.4V9.5h4.8c2.1,0,3.9-1.3,4.5-3.2H35.9z"/>
	<path d="M45.2,0h-9.9c0.5,2.7,2.5,4.8,5.1,5.5c0.6,0.2,1.2,0.2,1.9,0.2h7.6C50,5.4,50,5.1,50,4.8C50,2.1,47.8,0,45.2,0z"/>
</g>
</svg>
